<?xml version="1.0" encoding="UTF-8"?>
<!DOCTYPE svg PUBLIC "-//W3C//DTD SVG 1.1//EN" "http://www.w3.org/Graphics/SVG/1.1/DTD/svg11.dtd">
<svg xmlns="http://www.w3.org/2000/svg" version="1.1" width="500px" height="500px" style="shape-rendering:geometricPrecision; text-rendering:geometricPrecision; image-rendering:optimizeQuality; fill-rule:evenodd; clip-rule:evenodd" xmlns:xlink="http://www.w3.org/1999/xlink">
<g><path style="opacity:1" fill="#fefefe" d="M -0.5,-0.5 C 166.167,-0.5 332.833,-0.5 499.5,-0.5C 499.5,166.167 499.5,332.833 499.5,499.5C 332.833,499.5 166.167,499.5 -0.5,499.5C -0.5,332.833 -0.5,166.167 -0.5,-0.5 Z"/></g>
<g><path style="opacity:1" fill="#ef5068" d="M 310.5,161.5 C 320.235,161.121 328.402,164.455 335,171.5C 335.667,172.167 335.667,172.833 335,173.5C 298.986,209.68 262.82,245.68 226.5,281.5C 205.68,261.181 185.014,240.681 164.5,220C 172.853,208.877 183.186,206.544 195.5,213C 205.333,222.833 215.167,232.667 225,242.5C 250.167,217.333 275.333,192.167 300.5,167C 303.767,164.87 307.1,163.037 310.5,161.5 Z"/></g>
<g><path style="opacity:1" fill="#ef5068" d="M 347.5,185.5 C 353.144,188.412 356.644,193.079 358,199.5C 359.348,207.018 358.014,214.018 354,220.5C 316.833,257.667 279.667,294.833 242.5,332C 229.836,340.134 218.336,338.634 208,327.5C 207.333,326.833 207.333,326.167 208,325.5C 254.701,278.965 301.201,232.299 347.5,185.5 Z"/></g>
<g><path style="opacity:1" fill="#ef5369" d="M 150.5,233.5 C 151.552,233.351 152.552,233.517 153.5,234C 173.333,253.833 193.167,273.667 213,293.5C 213.667,294.167 213.667,294.833 213,295.5C 207.167,301.333 201.333,307.167 195.5,313C 194.833,313.667 194.167,313.667 193.5,313C 176.638,296.472 160.138,279.638 144,262.5C 141.629,257.061 140.963,251.394 142,245.5C 144.597,241.295 147.431,237.295 150.5,233.5 Z"/></g>
</svg>
