<?xml version="1.0" encoding="utf-8"?>
<!-- Generator: Adobe Illustrator 27.5.0, SVG Export Plug-In . SVG Version: 6.00 Build 0)  -->
<svg version="1.1" id="Capa_1" xmlns="http://www.w3.org/2000/svg" xmlns:xlink="http://www.w3.org/1999/xlink" x="0px" y="0px"
	 viewBox="0 0 1873 2403" style="enable-background:new 0 0 1873 2403;" xml:space="preserve">
<path style="fill:#EC6146;" d="M944.381,585.023L944.381,585.023c0,0,79.411-26.371,77.305-22.839c0,0.001-0.001,0.001-0.001,0.002
	c9.373-3.585,18.017-6.444,23.077-6.779c0.011-0.001,0.022-0.001,0.033-0.002c-0.037-1.075,0.02-2.196,0.236-3.393
	c0.124-0.691,0.225-1.317,0.345-1.995c1.564-8.888,2.724-16.628,3.609-23.477c0.047-0.373,0.099-0.758,0.145-1.125
	c0.171-1.352,0.328-2.657,0.477-3.939c0.062-0.538,0.126-1.074,0.185-1.6c0.131-1.154,0.252-2.284,0.368-3.383
	c0.018-0.17,0.033-0.334,0.052-0.503c-83.957-1.29-92.451-65.074-92.451-65.074c-8.938-46.941-2.716-52.38-3.79-79.501
	c-0.284-7.195-2.467-12.864-4.62-21.647c2.826-9.848,25.827-81.542,93.979-70.351c0,0-1.244,18.017,102.034,73.728
	c0,0,26.465,26.154,24.436,49.904c0,0,12.715-18.06,22.42-42.423c7.991-3.125,17.028-1.647,24.184,13.153
	c14.597,30.184-25.867,77.564-48.634,53.021c-0.743-0.8-1.356-1.715-1.875-2.708c-2.338,10.99-5.022,21.2-8.007,29.854
	c0,0-3.451,16.913-19.995,33.089c0.116,2.169,0.245,4.43,0.377,6.723c0.149,2.559,0.311,5.189,0.483,7.894
	c0.113,1.777,0.223,3.543,0.347,5.379c0.088,1.317,0.188,2.687,0.283,4.034c0.139,1.983,0.28,3.979,0.433,6.025
	c0.099,1.348,0.206,2.724,0.312,4.099c0.794,10.294,1.744,21.272,2.903,32.877c0.02,0.202-0.055,0.407-0.076,0.611
	c4.803,0.611,9.462,1.349,13.849,2.313c8.822,1.941,17.301,3.838,25.477,5.718c0-0.001,0-0.017,0-0.017s44.417,5.532,75.81,16.365
	c0.032,0.011,0.611,0.214,1.661,0.599c2.369,0.845,4.678,1.713,6.855,2.62c12.211,4.828,35.062,14.698,51.913,26.951
	c7.861,5.716,28.593,37.659,51.792,78.046c25.998-22.841,45.456-57.052,35.698-102.248c-11.153-51.66-101.653-72.246-105.734-112.57
	c-4.08-40.325,16.016-55.587,0-93.517c-22.097-52.334-87.919-62.958-99.191-86.386c-0.017-0.035-0.05-0.065-0.066-0.099
	c-5.165-30.053-20.799-58.64-37.292-67.942c-19.916-11.233-20.82-6.779-20.727-5.465c-0.359-2.23-3.692-17.05-30.503-29.71
	c-29.068-13.727-111.857-9.437-144.459,24.88c-32.601,34.317-42.468,69.492-35.604,97.804c0,0,0.453,2.24,1.129,6.128
	c3.511,20.183-4.81,58.288-21.063,84.903c-19.385,31.743-38.803,54.055-28.967,94.282c7.721,31.584,36.032,48.045,18.017,69.492
	c-16.436,19.567-64.795,38.079-40.744,111.208C911.3,595.225,944.381,585.023,944.381,585.023z"/>
<path style="fill:#F8BB96;" d="M812.038,896.922c-9.888-7.014-21.496-13.173-33.619-14.733c0-0.001,0-0.001,0.001-0.002
	c-4.87,9.708-9.259,17.241-12.425,20.346c-10.975,10.767-133.242,16.094-182.237,23.276c-2.555-7.588-7.941-18.821-19.063-27.962
	c-18.618-15.302-42.726-51.159-47.911-51.687c-5.186-0.527-10.567,8.629-6.945,23.467c2.878,11.793,9.641,25.571,12.302,30.744
	c0.332-0.175,0.694-0.299,1.097-0.302c1.341-0.01,2.436,1.07,2.447,2.412l0.001,0.059l0.012,0.276l0.095,1.142
	c0.106,1.006,0.32,2.475,0.744,4.258c0.847,3.568,2.529,8.384,5.857,13.307c0.75,1.112,0.458,2.623-0.654,3.375
	c-1.113,0.752-2.624,0.459-3.374-0.653c-7.341-10.889-7.526-21.115-7.539-21.664c-9.198,0.286-42.726,1.091-55.596-1.953
	c-14.976-3.542-42.44-13.617-48.472-8.28c-6.03,5.337-4.638,15.673-4.638,15.673s-15.725,5.007-16.603,10.979
	c-0.632,4.295,4.072,9.095,6.78,11.474c0.293-0.353,0.652-0.655,1.122-0.8c0.182-0.056,5.15-1.565,13.423-1.565
	c0.508,0,1.03,0.006,1.57,0.018c1.992,0.053,4.691,0.512,8.065,1.199c3.359,0.69,7.331,1.62,11.571,2.643
	c8.475,2.046,18.039,4.469,25.741,6.066c5.113,1.068,9.476,1.752,11.824,1.741h0.128c0.566-0.002,1.062,0.22,1.476,0.542
	c4.422-16.495,8.595-30.599,8.601-30.622h0.002c0.38-1.287,1.733-2.021,3.02-1.64c1.286,0.381,2.021,1.733,1.64,3.02
	c-0.002,0.007-0.78,2.633-2.022,6.96c-1.245,4.328-2.95,10.344-4.8,17.095c-3.697,13.496-7.97,29.956-10.242,41.634
	c-0.258,1.318-1.534,2.179-2.853,1.921c-1.317-0.257-2.178-1.533-1.92-2.852c0.73-3.739,1.667-7.957,2.704-12.368
	c-6.301-0.602-15.804-2.55-25.097-4.768c-10.103-2.42-19.727-5.111-24.239-6.755c-1.522-0.554-2.895-0.761-4.145-0.762
	c-4.449-0.039-7.649,2.836-7.865,3.069v0h0.001c-0.945,0.955-2.485,0.965-3.439,0.021c-0.956-0.944-0.966-2.484-0.021-3.439
	c0.214-0.182,4.373-4.464,11.324-4.513c1.798-0.001,3.761,0.308,5.811,1.056c4.099,1.501,13.751,4.216,23.703,6.595
	c9.526,2.285,19.442,4.268,25.112,4.719c1.138-4.653,2.358-9.433,3.593-14.119c-0.111,0.016-0.21,0.067-0.326,0.067l-0.145,0.001
	c-4.638-0.024-12.409-1.67-21.143-3.697c-8.691-2.031-18.17-4.467-25.503-6.106c-4.858-1.095-8.877-1.821-10.667-1.848l-1.458-0.016
	c-6.719-0.001-11,1.076-11.844,1.308l-0.148,0.042h0.001c-0.71,0.219-1.429,0.071-2.01-0.302
	c-1.929,3.532-4.669,11.282,1.963,19.779c0,0-4.543,9.338,10.283,16.396S484.915,992.157,517,999.248
	c9.384,2.074,35.787-1.573,54.896-8.923c42.166,11.814,232.51,62.655,265.023,27.277c7.778-8.463,16.64-20.926,25.77-35.276
	c-1.618-8.496-3.93-16.854-6.899-24.872C847.085,933.95,832.71,911.582,812.038,896.922z"/>
<path style="fill:#EA9878;" d="M791.622,853.592c-4.452,10.231-9.008,20.231-13.202,28.595c-0.001,0.001-0.001,0.001-0.001,0.002
	c12.123,1.56,23.732,7.72,33.619,14.733c20.672,14.659,35.047,37.028,43.751,60.531c2.969,8.018,5.281,16.375,6.899,24.872l0,0
	c0.003-0.003,0.004-0.006,0.006-0.01c0.897-1.408,1.796-2.844,2.696-4.286c0.267-0.426,0.532-0.85,0.798-1.28
	c0.89-1.434,1.781-2.882,2.675-4.346c0.204-0.336,0.409-0.674,0.614-1.012c4.086-6.724,8.185-13.718,12.229-20.81
	c0.09-0.155,0.178-0.31,0.266-0.466c5.215-9.159,10.335-18.466,15.204-27.534c0.041-0.077,0.082-0.153,0.124-0.229
	c2.132-3.973,4.211-7.891,6.235-11.738C865.381,899.339,814.26,868.328,791.622,853.592z"/>
<path style="fill:#F8BB96;" d="M1041.102,1748.487c-0.001,0-0.001-0.001-0.001-0.001c-0.135,0.937-0.269,1.87-0.407,2.824
	c-8.663-7.521-17.533-14.804-26.706-21.659c-23.974-17.917-50.369-34.263-79.236-42.906c-4.601-1.378-9.3-2.514-14.045-3.389
	c-1.574,100.654-3.278,235.113-2.697,316.209h86.857v0.001C1014.24,1934.659,1028.286,1837.364,1041.102,1748.487z"/>
<path style="fill:#E1D2CB;" d="M918.555,2037.461c0.029,1.143,0.057,2.273,0.089,3.364c0.023,0.826,0.047,1.613,0.072,2.408
	c0.029,0.977,0.059,1.963,0.091,2.893c0.027,0.82,0.058,1.583,0.087,2.367c0.052,1.383,0.106,2.71,0.163,3.975
	c0.041,0.922,0.081,1.858,0.125,2.715c0.032,0.629,0.066,1.187,0.099,1.78c0.042,0.729,0.083,1.467,0.126,2.142
	c0.036,0.55,0.072,1.046,0.109,1.559c0.045,0.625,0.089,1.241,0.136,1.809c0.039,0.469,0.077,0.904,0.119,1.334
	c0.049,0.527,0.098,1.026,0.149,1.492c0.041,0.368,0.082,0.723,0.124,1.053c0.055,0.441,0.113,0.831,0.171,1.204
	c0.042,0.261,0.081,0.532,0.124,0.758c0.068,0.364,0.138,0.651,0.208,0.925c0.036,0.141,0.07,0.315,0.107,0.432
	c0.109,0.343,0.222,0.598,0.338,0.73c0.002,0.001,0.003,0.004,0.003,0.005v0.001l73.124,3.561c0,0,0.088-0.612,0.242-1.681
	c0.619-4.293,2.478-17.151,5.175-35.83H918.53C918.539,2036.79,918.547,2037.13,918.555,2037.461z"/>
<path style="fill:#C1B3AE;" d="M918.529,2036.456h81.009c1.014-7.016,2.147-14.857,3.384-23.43h-84.777c0,0-0.013-0.01-0.014-0.011
	c0.003,0.214,0.006,0.41,0.008,0.624c0.005,0.305,0.009,0.588,0.011,0.89c0.022,1.824,0.046,3.618,0.07,5.369
	c0.005,0.3,0.008,0.621,0.012,0.918c0.007,0.463,0.014,0.908,0.021,1.366c0.002,0.079,0.004,0.152,0.004,0.231
	c0.029,1.877,0.061,3.705,0.093,5.489c0.004,0.217,0.007,0.451,0.011,0.666c0.007,0.327,0.012,0.656,0.018,0.979
	C918.427,2031.933,918.477,2034.248,918.529,2036.456z"/>
<path style="fill:#EB9B6E;" d="M921.563,1630.839c-0.046,2.661-0.091,5.386-0.137,8.143c-0.01,0.514-0.018,1.03-0.028,1.547
	c-0.222,13.317-0.456,27.68-0.693,42.827c0,0,0,0,0.002,0c4.745,0.875,9.444,2.011,14.045,3.389
	c28.867,8.644,55.262,24.989,79.236,42.906c9.173,6.855,18.043,14.138,26.706,21.659c1.494-10.365,2.971-20.618,4.426-30.699
	c0.734-5.102,1.461-10.145,2.182-15.15c0.898-6.242,1.785-12.401,2.658-18.461c2.844-19.744,5.533-38.427,7.99-55.51
	C1020.471,1631.634,958.619,1631.704,921.563,1630.839z"/>
<path style="fill:#4FBAAD;" d="M907.922,815.352c0-6.619,5.415-12.033,12.033-12.033h131.942c6.619,0,12.033,5.415,12.033,12.033
	v14.199h44.074c9.586,0.033,17.293,7.739,17.326,17.326v8.385c0.265,0.069,0.423,0.11,0.423,0.11s28.597-6.863,39.464,0
	c8.175,5.163,14.082,22.294,16.508,30.469c16.757,4.914,64.543,18.85,104.388,29.734c-0.341-29.558-0.153-57.877,0.306-84.723
	c16.882,34.541,31.093,61.809,33.463,67.623c3.621-0.303,7.253-0.744,10.887-1.294l0,0c43.95-6.649,87.871-30.165,108.032-42.71
	c5.945-3.699,9.839-6.451,11.039-7.525c-15.905-42.077-49.749-107.835-79.528-159.677c-23.199-40.388-43.931-72.33-51.792-78.046
	c-16.851-12.253-39.702-22.123-51.913-26.951c-2.177-0.907-4.486-1.776-6.855-2.62c-1.05-0.385-1.63-0.588-1.661-0.599
	c-31.394-10.834-75.81-16.365-75.81-16.365s0,0.016,0,0.017c-0.005,0.186-1.551,51.219-32.131,74.769
	c0,0-63.054,44.219-130.976-8.122c-17.533-13.51-10.011-46.163,2.511-67.167c0-0.001,0.001-0.001,0.001-0.002
	c2.106-3.532-77.305,22.839-77.305,22.839l0,0c0,0-33.081,10.202-83.575,93.007c-23.422,38.408-50.579,92.394-79.939,168.304
	c1.616,1.185,5.408,3.777,10.756,7.258c22.637,14.736,73.759,45.747,111.914,57.023c0.002,0.001,0.002,0.001,0.003,0.001
	c1.484,0.439,2.941,0.838,4.383,1.214V815.352z"/>
<path style="fill:#1C1D29;" d="M920.996,2070.406c-13.621,68.052-94.936,91.578-111.265,97.654
	c-16.33,6.077-9.92,15.551-9.92,15.551c180.023,19.075,193.481,1.406,193.481,1.406c12.204-15.439,0.828-111.05,0.828-111.05
	L920.996,2070.406L920.996,2070.406z"/>
<path style="fill:#1C1D29;" d="M1202.199,2067.364c0,0-3.813,98.94,3.05,116.388c6.864,17.449,157.382,49.224,179.687,32.065
	c22.306-17.159-65.202-74.64-75.497-103.809c-10.295-29.17-9.983-33.702-10.385-44.644h-4.286h-89.52H1202.199z"/>
<path style="fill:#F8BB96;" d="M1247.944,1724.261c-19.115-9.716-38.618-18.761-58.684-26.346c-8.067-3.05-16.289-5.899-24.631-8.34
	l31.837,296.11h100.953l7.475-230.362c-1.951-1.101-3.905-2.19-5.869-3.236C1281.908,1742.966,1265.249,1733.058,1247.944,1724.261z
	"/>
<path style="fill:#EB9B6E;" d="M1247.944,1724.261c17.305,8.797,33.964,18.705,51.081,27.826c1.963,1.047,3.918,2.135,5.869,3.236
	l4.059-125.087c-31.998,0.828-103.671,2.557-150.413,2.714l6.088,56.624l0.001,0.001c8.341,2.442,16.564,5.291,24.631,8.34
	C1209.326,1705.5,1228.829,1714.545,1247.944,1724.261z"/>
<path style="fill:#EADFD9;" d="M1295.86,2033.698l-0.018,0.57c-5.483-1.337-10.962-2.679-16.411-4.116
	c-20.066-5.292-39.76-12.484-60.249-16.023c-6.572-1.135-13.21-1.766-19.844-1.739l5.91,54.974h89.52l1.093-33.666
	C1295.862,2033.698,1295.862,2033.698,1295.86,2033.698z"/>
<path style="fill:#C1B3AE;" d="M1219.183,2014.129c20.489,3.539,40.183,10.731,60.249,16.023c5.448,1.437,10.928,2.779,16.411,4.116
	l1.165-35.848c-0.271,0.242-0.515,0.482-0.821,0.725h-98.272l1.424,13.244h0.002
	C1205.973,2012.363,1212.611,2012.994,1219.183,2014.129z"/>
<path style="fill:#50456D;" d="M1301.773,1536.512c0.129-24.924,0.306-49.882,0.306-74.837c0.002-45.183-0.763-90.26-3.943-134.777
	c-15.515-20.063-30.474-44.622-43.854-69.229c-14.376-1.014-28.753-2.024-43.133-2.923c-37.48-2.342-75.01-4.377-112.339-8.592
	c-0.511-0.058-1.022-0.127-1.534-0.185c-0.054,18.512-0.262,35.254-0.747,45.979c-0.062,1.342-1.199,2.38-2.54,2.32
	c-1.342-0.061-2.381-1.198-2.319-2.54c0.484-10.687,0.696-27.634,0.746-46.347c-16.568-1.99-33.084-4.43-49.465-7.614
	c-8.521-1.656-16.968-3.542-25.532-4.978c-8.555-1.434-17.125-2.778-25.691-4.146c-23.512-3.754-47.48-7.549-70.599-13.961
	c-9.371,88.68-16.204,203.03-21.43,320.743l155.246,10.912c0.767-23.435,0.796-47.641,2.486-71.705
	c2.923-41.505,10.909-82.647,36.904-118.232h0.001c0.792-1.083,2.312-1.319,3.396-0.528c1.083,0.792,1.32,2.312,0.528,3.396
	c-25.195,34.48-33.081,74.555-35.98,115.706c-1.688,23.901-1.701,48.103-2.48,71.704l30.406,2.138
	c7.958-117.567,13.815-207.282,13.815-207.282c0.837,7.931,7.052,94.785,14.96,206.469l0,0L1301.773,1536.512z"/>
<path style="fill:#50456D;" d="M1297.498,1317.829c-1.534-19.339-3.625-38.548-6.287-57.618
	c-10.376-0.683-20.752-1.403-31.126-2.133C1271.675,1279.205,1284.364,1300.007,1297.498,1317.829z"/>
<path style="fill:#50456D;" d="M1321.39,1262.044c-8.409-0.455-16.814-0.974-25.22-1.515c9.126,65.924,10.765,133.509,10.77,201.147
	c0,24.874-0.175,49.724-0.305,74.531l12.44-0.782c1.006,0,2.01,0.435,3.006,1.209c-0.243-82.329,0.417-156.792,3.093-213.439
	C1326.057,1304.53,1324.446,1283.658,1321.39,1262.044z"/>
<path style="fill:#3A3356;" d="M1276.235,1163.874c8.979,31.675,15.408,63.953,19.934,96.655c8.435,0.543,16.87,1.063,25.308,1.52
	c-0.434-3.079-0.902-6.175-1.397-9.282c-0.019-0.118-0.038-0.235-0.057-0.353c-5.507-34.384-14.584-70.245-24.05-102.336
	C1291.944,1155.343,1285.187,1159.923,1276.235,1163.874z"/>
<path style="fill:#3A3356;" d="M1260.085,1258.077c10.375,0.731,20.75,1.45,31.126,2.133c-4.466-31.987-10.757-63.531-19.493-94.461
	c-13.445,5.225-30.929,9.257-50.972,12.25c3.846,8.682,8.26,18.385,13.178,28.752
	C1241.582,1222.897,1250.47,1240.551,1260.085,1258.077z"/>
<path style="fill:#3A3356;" d="M1017.42,1232.789c8.564,1.436,17.011,3.321,25.532,4.978c16.381,3.184,32.896,5.624,49.465,7.614
	c0.009-3.166,0.014-6.368,0.014-9.615c0-17.128-0.11-35.068-0.248-50.728c-69.664-0.821-136.878-7.652-165.613-16.583
	c-0.251,1.905-0.506,3.773-0.753,5.713c-0.222,1.733-0.437,3.534-0.657,5.293c-0.382,3.078-0.764,6.164-1.139,9.324
	c-0.256,2.146-0.505,4.338-0.756,6.521c-0.333,2.888-0.664,5.794-0.991,8.745c-0.253,2.287-0.503,4.595-0.753,6.918
	c-0.134,1.247-0.272,2.454-0.404,3.71c0.004,0.001,0.01,0.002,0.014,0.003c23.119,6.412,47.087,10.208,70.599,13.961
	C1000.295,1230.011,1008.865,1231.355,1017.42,1232.789z"/>
<path style="fill:#3A3356;" d="M1097.276,1245.969c0.511,0.059,1.022,0.128,1.534,0.185c37.329,4.216,74.859,6.25,112.339,8.592
	c14.38,0.899,28.757,1.909,43.133,2.923c-15.547-28.595-28.935-57.213-38.536-78.953c-35.035,4.84-77.136,6.683-118.702,6.362
	c0.137,15.65,0.247,33.57,0.247,50.687C1097.291,1239.216,1097.284,1242.611,1097.276,1245.969z"/>
<path style="fill:#262C35;" d="M1298.136,1326.899c3.18,44.517,3.946,89.594,3.943,134.777c0,24.954-0.177,49.912-0.306,74.837
	l4.862-0.306c0.13-24.806,0.305-49.657,0.305-74.531c-0.005-67.637-1.643-135.223-10.77-201.147
	c-4.526-32.702-10.956-64.98-19.934-96.655c-1.453,0.641-2.953,1.267-4.517,1.875c8.736,30.93,15.027,62.474,19.493,94.461
	c2.662,19.07,4.752,38.279,6.287,57.618c-13.134-17.822-25.823-38.624-37.413-59.752c-9.615-17.527-18.503-35.18-26.161-51.326
	c-4.919-10.367-9.332-20.07-13.178-28.752c-1.649,0.246-3.317,0.485-5,0.717c9.601,21.74,22.989,50.358,38.536,78.953
	C1267.662,1282.277,1282.62,1306.836,1298.136,1326.899z"/>
<path style="fill:#262C35;" d="M1092.417,1245.38c-0.051,18.713-0.262,35.66-0.746,46.347c-0.062,1.342,0.977,2.479,2.319,2.54
	c1.341,0.06,2.478-0.978,2.54-2.32c0.484-10.725,0.692-27.467,0.747-45.979c0.008-3.358,0.015-6.753,0.015-10.203
	c0-17.116-0.11-35.037-0.247-50.687c-1.621-0.012-3.243-0.022-4.862-0.041c0.138,15.66,0.248,33.6,0.248,50.728
	C1092.43,1239.013,1092.425,1242.214,1092.417,1245.38z"/>
<path style="fill:#F8BB96;" d="M1142.956,554.675c0.021-0.203,0.097-0.409,0.076-0.611c-1.159-11.605-2.108-22.583-2.903-32.877
	c0.087,1.115,0.164,2.191,0.254,3.323c-10.177,17.415-30.996,33.452-59.076,32.94c-16.947-0.309-28.543-3.796-35.961-7.249
	c0.011-0.064,0.02-0.121,0.032-0.185c-0.12,0.678-0.221,1.304-0.345,1.995c-0.215,1.197-0.273,2.319-0.236,3.393
	c-0.011,0.001-0.022,0.001-0.033,0.002c-5.061,0.335-13.704,3.195-23.077,6.779c-12.522,21.004-20.044,53.656-2.511,67.167
	c67.923,52.341,130.976,8.122,130.976,8.122c30.58-23.55,32.125-74.583,32.131-74.769c-8.175-1.88-16.655-3.777-25.477-5.718
	C1152.418,556.024,1147.758,555.286,1142.956,554.675z"/>
<path style="fill:#4FBAAD;" d="M1175.508,975.483l-32.042-1.144c0,0-4.557,5.72-12.721,9.152c-8.163,3.431-40.38-1.144-40.38-1.144
	s-2.932,6.864-3.269,14.871c-0.338,8.008-4.238,10.296-18.891,17.159c-14.652,6.864-129.48,4.576-142.629,0
	c-6.165-2.145-7.507-13.205-7.219-24.349c-4.044-0.548-7.443-3.095-9.177-6.633c0.219,98.419,2.777,175.987,2.777,175.987
	c0.139,3.154,5.431,6.219,14.611,9.073c28.735,8.931,95.949,15.762,165.613,16.583c1.618,0.019,3.241,0.029,4.862,0.041
	c41.566,0.322,83.667-1.522,118.702-6.362c1.683-0.232,3.351-0.471,5-0.717c20.043-2.993,37.527-7.025,50.972-12.25
	c1.564-0.608,3.064-1.234,4.517-1.875c8.952-3.951,15.709-8.531,19.738-13.795c0.003-0.003,0.005-0.006,0.007-0.009
	c3.271-4.276,4.793-8.99,4.147-14.206c-2.635-21.264-4.794-42.265-6.593-62.974
	C1256.223,1044.315,1175.508,975.483,1175.508,975.483z"/>
<path style="fill:#3E9387;" d="M1063.931,846.877v99.753h38.309c-8.229-2.421-14.759-4.836-17.656-6.479
	c-10.858-6.162-3.639-24.722-3.639-24.722c-6.489-9.723,2.224-22.829,2.224-22.829c-7.849-8.201,3.928-22.58,3.928-22.58
	c-3.771-4.229-6.527-15.218,0-19.189c3.157-1.921,12.302-0.915,20.907,0.631v-4.583H1063.931z"/>
<path style="fill:#3E9387;" d="M1171.795,950.813L1171.795,950.813c-7.882,6.503-28.194,5.006-47.42,1.225
	c-2.285,6.902-8.686,11.891-16.37,11.918h-44.074v14.199c0,6.619-5.415,12.033-12.033,12.033H919.955
	c-0.546,0-1.069-0.091-1.598-0.162c-0.288,11.144,1.054,22.205,7.219,24.349c13.149,4.576,127.977,6.864,142.629,0
	c14.653-6.863,18.554-9.151,18.891-17.159c0.337-8.007,3.269-14.871,3.269-14.871s32.217,4.576,40.38,1.144
	c8.164-3.432,12.721-9.152,12.721-9.152l32.042,1.144c0,0,80.715,68.832,118.026,97.407l0,0c-1.744-20.077-3.118-39.85-4.198-59.279
	c-0.036-0.636-0.072-1.273-0.106-1.908c-0.007-0.127-0.011-0.25-0.018-0.376C1238.234,988.552,1191.585,962.304,1171.795,950.813z"
	/>
<path style="fill:#EA9878;" d="M1081.306,557.45c28.08,0.511,48.899-15.526,59.076-32.94c-0.089-1.132-0.167-2.208-0.254-3.323
	c-0.106-1.375-0.213-2.751-0.312-4.099c-0.153-2.047-0.294-4.042-0.433-6.025c-0.095-1.347-0.195-2.716-0.283-4.034
	c-0.124-1.836-0.234-3.603-0.347-5.379c-0.172-2.705-0.334-5.335-0.483-7.894c-0.074-1.306-0.157-2.652-0.227-3.919l-4.121,0.824
	c-15.173,13.043-39.558,24.711-78.471,25.371c-1.795,0.028-3.504-0.016-5.234-0.043c-0.016,0.162-0.038,0.34-0.055,0.503
	c-0.116,1.099-0.237,2.229-0.368,3.383c-0.059,0.527-0.122,1.061-0.185,1.6c-0.149,1.282-0.306,2.587-0.477,3.939
	c-0.046,0.369-0.098,0.751-0.145,1.125c-0.884,6.849-2.045,14.589-3.609,23.477c-0.011,0.064-0.021,0.121-0.032,0.185
	C1052.763,553.654,1064.359,557.141,1081.306,557.45z"/>
<path style="fill:#F8BB96;" d="M1216.404,373.777c-7.156-14.8-16.193-16.278-24.184-13.153c-9.706,24.363-22.42,42.423-22.42,42.423
	c2.029-23.751-24.436-49.904-24.436-49.904c-103.279-55.711-102.034-73.728-102.034-73.728
	c-68.152-11.191-91.153,60.503-93.979,70.351c2.154,8.783,4.336,14.451,4.62,21.647c1.074,27.121-5.148,32.56,3.79,79.501
	c0,0,8.494,63.784,92.451,65.074c-0.018,0.169-0.033,0.333-0.052,0.503c0.017-0.163,0.039-0.341,0.055-0.503
	c1.73,0.027,3.44,0.071,5.234,0.043c38.913-0.66,63.298-12.328,78.471-25.371l4.121-0.824c0.004,0.074,0.01,0.154,0.013,0.229
	c0.001-0.001,0.004-0.001,0.007-0.002c-0.058-1.009-0.119-2.052-0.171-3.03c16.544-16.176,19.995-33.089,19.995-33.089
	c2.985-8.654,5.669-18.864,8.007-29.854c0.519,0.993,1.132,1.908,1.875,2.708C1190.537,451.341,1231.001,403.961,1216.404,373.777z"
	/>
<path style="fill:#D98568;" d="M1026.206,387.73l-0.021,0.422l-0.003,0.032l-0.003,0.089c-0.342,16.02-5.469,28.408-7.511,35.82
	c-0.179,0.64-0.262,1.28-0.26,1.893c0.011,2.517,1.317,4.543,2.845,6.075c2.326,2.317,5.409,3.915,7.956,5.051
	c2.544,1.122,4.549,1.724,4.612,1.744c1.284,0.387,2.641-0.342,3.027-1.629c0.386-1.286-0.344-2.641-1.628-3.027h-0.002
	l-0.517-0.167c-1.213-0.402-4.367-1.552-7.043-3.17c-1.338-0.802-2.544-1.726-3.316-2.611c-0.786-0.902-1.077-1.645-1.074-2.267
	l0.081-0.585l0.004-0.016c1.851-6.844,7.299-19.995,7.679-36.888h0.001c0.005-0.05,0.055-0.805,0.055-2.099
	c-0.026-6.111-1.13-24.614-15.458-37.314c-1.008-0.887-2.544-0.789-3.431,0.219c-0.887,1.007-0.789,2.543,0.219,3.43
	c12.596,11.013,13.835,28.108,13.809,33.665C1026.23,386.979,1026.217,387.43,1026.206,387.73z"/>
<path style="fill:#381D1F;" d="M1090.55,379.548c-3.95-0.084-7.235,3.777-7.339,8.625c-0.102,4.846,3.016,8.844,6.965,8.927
	c3.952,0.084,7.237-3.777,7.34-8.624C1097.619,383.629,1094.501,379.632,1090.55,379.548z"/>
<path style="fill:#381D1F;" d="M988.728,383.779c-0.104,4.847,3.015,8.844,6.965,8.928c3.95,0.084,7.236-3.777,7.338-8.624
	c0.103-4.847-3.016-8.845-6.966-8.928C992.117,375.07,988.83,378.932,988.728,383.779z"/>
<path style="fill:#F49F7E;" d="M1091.795,431.607c12.705,0.27,23.134-5.626,23.294-13.166c0.16-7.542-10.01-13.874-22.715-14.143
	c-12.705-0.27-23.135,5.626-23.295,13.167C1068.919,425.006,1079.089,431.338,1091.795,431.607z"/>
<path style="fill:#F49F7E;" d="M986.217,402.046c-12.706-0.27-23.135,5.625-23.295,13.166c-0.16,7.542,10.009,13.873,22.716,14.143
	c12.705,0.269,23.134-5.625,23.294-13.167C1009.092,408.647,998.922,402.315,986.217,402.046z"/>
<path style="fill:#EC6146;" d="M991.583,336.948c-12.032,0-16.802,10.84-17.018,13.441c-0.216,2.601,8.888-5.42,16.877-5.42
	c7.343,0,16.292,2.818,16.292,2.818C1010.553,346.704,1002.964,336.948,991.583,336.948z"/>
<path style="fill:#EC6146;" d="M1095.616,347.205c7.989,0,17.094,8.021,16.877,5.42c-0.216-2.602-6.491-13.371-18.523-13.371
	c-11.382,0-17.463,9.686-14.646,10.77C1079.324,350.023,1088.272,347.205,1095.616,347.205z"/>
<path style="fill:#D98568;" d="M1176.076,424.898c1.341-0.313,2.176-1.655,1.863-2.997c-0.475-2.025-0.693-4.122-0.693-6.267
	c-0.015-5.727,1.606-11.778,4.043-17.447c3.818-5.129,8.326-6.523,12.892-6.573c3.484-0.005,6.906,0.94,9.422,1.908
	c1.26,0.483,2.292,0.966,2.997,1.323l0.801,0.424l0.238,0.136c1.18,0.71,2.713,0.329,3.422-0.851c0.71-1.181,0.33-2.713-0.85-3.423
	h-0.001c-0.196-0.086-7.312-4.463-16.029-4.504c-2.374-0.021-4.899,0.376-7.383,1.287c0.045-0.068,0.086-0.143,0.131-0.211
	c2.628-4.016,5.457-7.447,7.94-9.878c1.238-1.215,2.392-2.178,3.347-2.829c0.942-0.658,1.724-0.967,1.938-0.991l1.087-0.1
	c2.091-0.016,3.942,1.2,5.354,2.662c0.694,0.717,1.244,1.458,1.608,2.004l0.405,0.645l0.091,0.161l0.014,0.025
	c0.632,1.224,2.137,1.703,3.361,1.07c1.224-0.633,1.703-2.138,1.071-3.362h-0.001c-0.073-0.131-1.046-2.02-2.961-4.01
	c-1.895-1.961-4.889-4.168-8.941-4.184c-0.645-0.001-1.308,0.058-1.981,0.181c-1.374,0.265-2.566,0.91-3.859,1.779
	c-4.42,3.053-9.989,9.392-14.708,17.426c-4.677,8.026-8.42,17.696-8.435,27.329c0,2.482,0.251,4.963,0.821,7.402
	C1173.392,424.378,1174.733,425.212,1176.076,424.898z"/>
<path style="fill:#21665C;" d="M910.075,792.74c-0.091,1.339,0.922,2.498,2.261,2.588c1.34,0.09,2.499-0.923,2.59-2.263h-0.001
	c0.001-0.016,0.408-6.073,1.123-15.982c2.144-29.719,7.05-93.973,11.94-131.958c0.171-1.331-0.77-2.549-2.101-2.72
	c-1.33-0.171-2.549,0.769-2.72,2.1C916.61,695.457,910.077,792.714,910.075,792.74z"/>
<path style="fill:#F8BB96;" d="M1466.339,931.853c-7.316-2.267-14.647-4.481-22.044-6.48c-24.221-6.548-48.833-10.177-73.957-9.708
	c-10.251,0.191-20.736,0.897-30.999-0.123l-0.25-0.535c0,0.001,0,0.001,0,0.001l6.868,14.719
	c-3.606,0.692-29.389-5.833-59.842-14.151c-39.845-10.883-87.631-24.819-104.388-29.734c-2.425-8.175-8.333-25.306-16.508-30.469
	c-10.868-6.863-39.464,0-39.464,0s-0.159-0.041-0.423-0.11c-1.801-0.466-9.323-2.365-17.327-3.802
	c-8.605-1.545-17.75-2.551-20.907-0.631c-6.527,3.971-3.771,14.959,0,19.189c0,0-11.777,14.38-3.928,22.58
	c0,0-8.712,13.106-2.224,22.829c0,0-7.219,18.56,3.639,24.722c2.896,1.644,9.427,4.059,17.656,6.479
	c6.583,1.936,14.246,3.856,22.135,5.409c19.225,3.781,39.537,5.277,47.42-1.225c19.791,11.491,66.44,37.739,117.418,60.514
	c67.978,30.37,143.62,54.543,173.422,29.224C1484.175,1022.253,1479.038,977.132,1466.339,931.853z"/>
<path style="fill:#EA9878;" d="M1330.771,897.182l8.568,18.36c10.263,1.021,20.748,0.314,30.999,0.123
	c25.124-0.469,49.736,3.159,73.957,9.708c7.407,2.003,14.75,4.22,22.077,6.491c-0.379-1.352-0.771-2.703-1.165-4.054
	c-0.398-1.375-0.805-2.749-1.217-4.122c-0.631-2.105-1.273-4.205-1.93-6.301c-0.377-1.201-0.755-2.399-1.139-3.595
	c-0.71-2.214-1.433-4.417-2.166-6.611c-0.385-1.153-0.77-2.307-1.158-3.453c-0.527-1.547-1.057-3.089-1.593-4.622
	c-0.346-0.994-0.698-1.977-1.047-2.965c-0.851-2.406-1.709-4.794-2.574-7.154c-0.283-0.772-0.567-1.536-0.852-2.303
	c-0.939-2.539-1.882-5.046-2.827-7.515c-0.271-0.708-0.541-1.413-0.811-2.114c-0.984-2.551-1.966-5.055-2.943-7.513
	c-0.224-0.566-0.45-1.138-0.674-1.699c-1.806-4.515-3.586-8.854-5.313-12.977c-0.054-0.129-0.109-0.263-0.163-0.392
	C1418.642,867.017,1374.721,890.533,1330.771,897.182z"/>
<path style="fill:#21665C;" d="M1284.909,822.206h-0.001l-0.264-0.469c-2.702-4.867-25.062-47.118-25.053-107.075
	c0.001-21.125,2.767-44.452,10.139-69.152c0.384-1.286-0.348-2.64-1.635-3.024c-1.286-0.384-2.64,0.348-3.023,1.634
	c-7.519,25.185-10.344,48.994-10.342,70.542c0.012,65.259,25.855,109.765,25.973,109.985c0.673,1.161,2.161,1.556,3.322,0.882
	C1285.187,824.855,1285.582,823.367,1284.909,822.206z"/>
<path style="fill:#21665C;" d="M1418.585,821.536c-14.074,11.408-41.029,22.906-64.298,31.352
	c-11.644,4.237-22.389,7.744-30.218,10.189c-3.916,1.223-7.101,2.181-9.306,2.831c-2.205,0.652-3.416,0.993-3.419,0.994
	c-1.293,0.364-2.045,1.707-1.681,2.999c0.365,1.292,1.707,2.044,3,1.68h-0.001c0.037-0.011,19.815-5.584,43.287-14.124
	c23.494-8.57,50.593-19.979,65.69-32.139c1.043-0.844,1.206-2.374,0.363-3.418C1421.16,820.856,1419.629,820.692,1418.585,821.536z"
	/>
<path style="fill:#21665C;" d="M990.079,605.729c-0.021,16.608,6.209,29.563,15.444,39.297c13.86,14.618,34.21,22.279,51.066,26.432
	c16.811,4.124,30.198,4.702,30.388,4.712c3.258,0.168,6.424,0.25,9.502,0.25c24.246,0.003,42.936-5.086,57.26-13.086
	c21.504-12,33-30.462,39.044-47.365c6.055-16.919,6.763-32.352,6.766-38.804c0-2.004-0.068-3.14-0.071-3.185
	c-0.083-1.339-1.235-2.359-2.575-2.277c-1.338,0.081-2.359,1.234-2.276,2.573h-0.001l0.03,0.718
	c0.015,0.491,0.032,1.224,0.032,2.171c0.012,8.126-1.257,31.95-14.109,53.437c-6.425,10.753-15.699,20.94-29.21,28.487
	c-13.512,7.542-31.314,12.466-54.89,12.469c-2.992,0-6.078-0.08-9.257-0.243l-0.023-0.001c-0.001,0-0.333-0.014-1.007-0.058
	c-5.045-0.319-28.233-2.316-49.864-11.54c-10.819-4.603-21.216-10.999-28.833-19.748c-7.615-8.764-12.539-19.806-12.555-34.238
	c0-9.691,2.253-20.934,7.583-33.962c0.507-1.242-0.087-2.661-1.329-3.169c-1.243-0.509-2.662,0.086-3.169,1.329
	C992.505,583.414,990.079,595.28,990.079,605.729z"/>
<path style="fill:#262C35;" d="M1062.281,1474.973c2.899-41.151,10.785-81.226,35.98-115.706c0.792-1.083,0.554-2.604-0.528-3.396
	c-1.083-0.792-2.603-0.556-3.396,0.528h-0.001c-25.995,35.584-33.981,76.727-36.904,118.232c-1.69,24.065-1.719,48.27-2.486,71.705
	l4.855,0.341C1060.58,1523.076,1060.593,1498.874,1062.281,1474.973z"/>
<path style="fill:#665E88;" d="M1059.801,1546.677l-4.855-0.341L899.7,1535.425l0,0c0,0-10.734,0-13.594,24.022
	c-2.068,17.376-9.722,66.346,5.721,69.778c3.324,0.739,14.417,1.256,29.737,1.613c37.056,0.866,98.908,0.796,136.388,0.651
	c18.995-0.074,31.772-0.167,31.772-0.167s14.87-84.459,0.485-82.507h-0.001L1059.801,1546.677z"/>
<path style="fill:#665E88;" d="M1306.634,1536.207l-4.862,0.306l-182.791,11.489l0,0c-0.001,0-7.055,1.151-7.862,10.301
	c-0.807,9.152-2.198,69.336,3.93,73.275c1.73,1.112,19.246,1.453,43.491,1.372c46.742-0.157,118.415-1.885,150.413-2.714l0,0
	c10.214-0.264,16.472-0.439,16.472-0.439s7.948-2.288,9.093-9.723c1.144-7.436-0.572-61.771-4.004-69.778
	c-2.57-5.997-5.462-11.35-8.434-13.661c-0.996-0.775-2-1.209-3.006-1.209L1306.634,1536.207z"/>
<path style="fill:#262C35;" d="M1074.978,1612.496l-175.098-3.432c-1.342-0.026-2.451,1.04-2.477,2.383
	c-0.027,1.343,1.04,2.452,2.383,2.479l175.098,3.431c1.343,0.027,2.451-1.04,2.478-2.383
	C1077.387,1613.632,1076.32,1612.522,1074.978,1612.496z"/>
<path style="fill:#262C35;" d="M1313.836,1603.918l-185.885,6.864c-1.341,0.049-2.388,1.177-2.339,2.519
	c0.049,1.342,1.177,2.389,2.519,2.339l185.885-6.864c1.341-0.05,2.388-1.177,2.338-2.519
	C1316.305,1604.916,1315.178,1603.869,1313.836,1603.918z"/>
<path style="fill:#F2E8E2;" d="M918.01,1999.565h-0.119c-7.974,6.669,0.091,13.327,0.24,13.449c0.001,0.001,0.014,0.011,0.014,0.011
	h84.777h0.001l0,0l0,0c7.572-7.128,1.947-13.457,1.944-13.46v-0.001H918.01z"/>
<path style="fill:#F2E8E2;" d="M1195.682,1985.685c-9.514,6.731,0.299,13.461,0.299,13.461h1.933h98.272
	c0.306-0.243,0.55-0.483,0.821-0.725l0,0c7.64-6.827,1.478-12.736,1.478-12.736h-1.065h-100.953H1195.682z"/>
<path style="fill:#D98568;" d="M1394.071,945.069c-23.473-10.592-44.042-15.315-44.139-15.34c-1.309-0.3-2.613,0.517-2.914,1.825
	c-0.299,1.309,0.518,2.613,1.827,2.913h-0.002c0.005,0.001,1.228,0.282,3.48,0.878c7.878,2.086,28,7.974,48.461,18.315
	c20.483,10.325,41.184,25.158,50.509,44.61c0.583,1.21,2.035,1.719,3.245,1.136c1.21-0.582,1.719-2.035,1.136-3.245
	C1444.011,972.074,1417.516,955.689,1394.071,945.069z"/>
<path style="fill:#38312A;" d="M918.358,990.026c0.528,0.071,1.052,0.162,1.598,0.162h131.942c6.619,0,12.033-5.415,12.033-12.033
	v-14.199h44.074c7.684-0.027,14.085-5.016,16.37-11.918c-7.889-1.552-15.552-3.473-22.135-5.409h-38.309v-99.753h44.073v4.583
	c8.005,1.437,15.526,3.336,17.327,3.802v-8.385c-0.033-9.587-7.74-17.293-17.326-17.326h-44.074v-14.199
	c0-6.619-5.415-12.033-12.033-12.033H919.955c-6.618,0-12.033,5.415-12.033,12.033v96.478v66.326c0,1.884,0.478,3.647,1.259,5.239
	C910.915,986.932,914.314,989.478,918.358,990.026z"/>
<path style="fill:#D98568;" d="M547.449,935.621l-0.002-0.001l-0.45-0.005c-1.929,0.002-9.841,0.234-19.917,3.875
	c-10.068,3.635-22.313,10.725-32.663,24.341c-0.814,1.069-0.606,2.594,0.463,3.407c1.069,0.813,2.594,0.605,3.408-0.464
	c9.724-12.779,21.074-19.319,30.444-22.713c9.365-3.389,16.737-3.587,18.264-3.586l0.286,0.003c1.341,0.045,2.466-1.005,2.511-2.347
	C549.841,936.792,548.79,935.666,547.449,935.621z"/>
<path style="fill:#D98568;" d="M531.741,924.898c1.112-0.752,1.405-2.263,0.654-3.375c-3.328-4.923-5.01-9.739-5.857-13.307
	c-0.424-1.783-0.638-3.252-0.744-4.258l-0.095-1.142l-0.012-0.276l-0.001-0.059c-0.011-1.342-1.106-2.421-2.447-2.412
	c-0.403,0.003-0.765,0.127-1.097,0.302c-0.778,0.41-1.323,1.205-1.315,2.145h-0.001c0,0.004,0.001,0.056,0.003,0.064
	c0.012,0.55,0.197,10.775,7.539,21.664C529.117,925.357,530.628,925.649,531.741,924.898z"/>
<path style="fill:#D98568;" d="M404.852,934.321h-0.001l0.148-0.042c0.844-0.232,5.125-1.308,11.844-1.308l1.458,0.016
	c1.791,0.027,5.81,0.753,10.667,1.848c7.333,1.639,16.812,4.075,25.503,6.106c8.734,2.027,16.504,3.673,21.143,3.697l0.145-0.001
	c0.116,0,0.215-0.05,0.326-0.067c-1.235,4.686-2.455,9.467-3.593,14.119c-5.67-0.45-15.586-2.434-25.112-4.719
	c-9.951-2.378-19.603-5.093-23.703-6.595c-2.05-0.748-4.013-1.057-5.811-1.056c-6.951,0.049-11.111,4.33-11.324,4.513
	c-0.945,0.955-0.935,2.495,0.021,3.439c0.954,0.944,2.494,0.934,3.439-0.021h-0.001v0c0.216-0.232,3.416-3.108,7.865-3.069
	c1.25,0.001,2.623,0.208,4.145,0.762c4.512,1.644,14.136,4.336,24.239,6.755c9.293,2.217,18.797,4.165,25.097,4.768
	c-1.038,4.412-1.975,8.63-2.704,12.368c-0.258,1.318,0.603,2.595,1.92,2.852c1.319,0.257,2.595-0.604,2.853-1.921
	c2.272-11.678,6.545-28.138,10.242-41.634c1.85-6.751,3.555-12.767,4.8-17.095c1.243-4.327,2.021-6.953,2.022-6.96
	c0.38-1.287-0.355-2.639-1.64-3.02c-1.287-0.381-2.64,0.354-3.02,1.64h-0.002c-0.006,0.023-4.179,14.128-8.601,30.622
	c-0.414-0.322-0.91-0.544-1.476-0.542h-0.128c-2.348,0.011-6.711-0.673-11.824-1.741c-7.702-1.597-17.266-4.02-25.741-6.066
	c-4.241-1.023-8.212-1.953-11.571-2.643c-3.374-0.687-6.073-1.145-8.065-1.199c-0.54-0.012-1.062-0.018-1.57-0.018
	c-8.272,0-13.241,1.509-13.423,1.565c-0.47,0.145-0.829,0.446-1.122,0.8c-0.504,0.61-0.736,1.427-0.485,2.24
	c0.176,0.572,0.562,1.007,1.029,1.305C403.423,934.391,404.142,934.54,404.852,934.321z"/>
<path style="fill:#D98568;" d="M480.53,915.819c-10.873-0.322-25.991-3.409-38.676-6.577c-9.967-2.479-20.027-2.766-24.438-2.769
	c-1.438,0-2.272,0.032-2.3,0.033c-1.342,0.053-2.386,1.184-2.333,2.526c0.054,1.341,1.184,2.386,2.526,2.332
	c0.003,0,0.744-0.029,2.107-0.029c4.181-0.005,13.954,0.299,23.261,2.624c12.867,3.201,28.112,6.358,39.704,6.719
	c1.341,0.041,2.463-1.013,2.504-2.355C482.925,916.981,481.871,915.86,480.53,915.819z"/>
<path style="fill:#E56B65;" d="M1070.275,443.852c-2.002-2.288-7.435,0.144-7.435,0.144c-25.809,8.293-39.75,2.716-39.75,2.716
	c-2.026-0.456-5.434-2.288-9.063-1.43c-3.63,0.858-0.375,26.881,25.934,27.168C1066.271,472.736,1072.276,446.14,1070.275,443.852z"
	/>
<path style="fill:#2B0F0F;" d="M1062.928,456.301c2.975-3.777,4.51-7.199,4.774-7.872c0.642-1.644,1.287-3.217-0.43-3.789
	c-0.748-0.25-2.269,0.472-4.388,1.503c-1.865,3.807-9.34,12.713-22.636,11.52c-10.307-0.924-14.721-5.107-16.474-7.49
	c0,0,0.002,0,0.003,0c-2.238-0.657-4.355-1.466-6.121-2.602c0,0-1.882-1.072-1.859,1.931c0.016,2.202,7.258,17.902,24.451,18.231
	c4.45,0.085,8.279-0.887,11.57-2.41c-1.544,0.714-3.194,1.321-4.99,1.736C1052.755,452.243,1062.761,456.232,1062.928,456.301z"/>
<path style="fill:#F7EBEB;" d="M1040.248,457.662c13.296,1.192,20.77-7.714,22.636-11.52l0,0c-0.403,0.195-0.873,0.419-1.32,0.634
	c-0.415,0.2-0.825,0.391-1.279,0.6c-0.414,0.191-0.867,0.384-1.311,0.578c-0.415,0.18-0.817,0.355-1.258,0.534
	c-0.541,0.219-1.126,0.426-1.707,0.635c-0.386,0.139-0.749,0.282-1.152,0.413c-1.007,0.329-2.059,0.636-3.17,0.895
	c-0.93,0.217-1.985,0.415-3.104,0.598c-0.474,0.077-0.985,0.142-1.487,0.211c-0.628,0.087-1.255,0.17-1.921,0.242
	c-0.753,0.082-1.526,0.154-2.318,0.213c-0.377,0.028-0.753,0.05-1.137,0.073c-5.822,0.342-12.403,0.033-17.944-1.595
	c-0.001,0-0.003,0-0.003,0C1025.527,452.555,1029.941,456.738,1040.248,457.662z"/>
<path style="fill:#E83B3B;" d="M1062.928,456.301L1062.928,456.301c-0.167-0.068-10.173-4.057-16.1,10.757
	c1.796-0.415,3.447-1.022,4.99-1.736c0.095-0.045,0.2-0.079,0.295-0.124c1.475-0.705,2.823-1.532,4.073-2.423
	c0.123-0.087,0.25-0.167,0.37-0.255c1.227-0.904,2.347-1.872,3.358-2.866c0.077-0.076,0.154-0.148,0.23-0.224
	c1.035-1.036,1.967-2.094,2.781-3.125C1062.925,456.303,1062.927,456.302,1062.928,456.301z"/>
<path style="fill:#AB4234;" d="M1269.541,492.366c-1.32,0.245-2.192,1.513-1.946,2.832c2.121,11.502,7.996,20.885,15.948,28.681
	c11.942,11.704,28.529,20.046,45.114,27.642c16.583,7.574,33.207,14.405,45.09,22.605c10.294,7.162,13.381,15.138,13.436,23.066
	c0.016,7.931-3.398,15.876-6.907,21.785c-1.746,2.954-3.501,5.4-4.811,7.094c-0.654,0.847-1.197,1.507-1.573,1.95l-0.429,0.498
	l-0.134,0.15c-0.905,0.992-0.835,2.53,0.157,3.435c0.992,0.904,2.53,0.834,3.435-0.158h-0.001c0.073-0.083,3.791-4.158,7.541-10.494
	c3.736-6.338,7.564-14.95,7.581-24.26c0.055-9.311-4.103-19.256-15.539-27.069c-16.751-11.51-41.026-19.879-62.013-30.854
	c-10.487-5.471-20.121-11.568-27.543-18.86c-7.427-7.303-12.647-15.722-14.576-26.098
	C1272.128,492.994,1270.86,492.122,1269.541,492.366z"/>
<path style="fill:#AB4234;" d="M942.485,550.377c-0.011,3.764-1.008,7.273-3.456,10.752c-0.777,1.096-0.516,2.614,0.581,3.389
	c1.097,0.776,2.613,0.515,3.39-0.581c3.022-4.255,4.357-8.901,4.346-13.56c-0.051-10.098-5.838-20.097-12.676-29.776
	c-6.869-9.658-14.969-19.02-20.118-27.147c-3.133-4.943-4.227-9.467-4.234-13.565c-0.006-5.902,2.362-11.024,4.799-14.688
	c1.215-1.828,2.437-3.282,3.343-4.263l1.079-1.109l0.285-0.268l0.075-0.068c1.01-0.883,1.113-2.419,0.231-3.429
	c-0.883-1.01-2.419-1.114-3.428-0.231H916.7c-0.109,0.097-2.853,2.502-5.631,6.677c-2.767,4.168-5.607,10.16-5.612,17.379
	c-0.007,4.991,1.393,10.521,4.99,16.171c5.466,8.596,13.574,17.939,20.259,27.357C937.422,532.814,942.536,542.263,942.485,550.377z
	"/>
<path style="fill:#AB4234;" d="M1053.628,265.32c-1.152,0.691-1.526,2.183-0.836,3.335c0.69,1.152,2.184,1.526,3.335,0.836
	l75.868-45.47c1.152-0.691,1.526-2.184,0.836-3.335c-0.69-1.152-2.184-1.526-3.335-0.835L1053.628,265.32z"/>
<path style="fill:#AB4234;" d="M1153.549,325.111h-0.002c-0.001,0-0.695-0.185-2.017-0.579
	c-9.251-2.726-48.172-15.624-71.103-40.627c-0.909-0.987-2.448-1.051-3.434-0.143c-0.988,0.909-1.051,2.447-0.142,3.434
	c27.698,30.002,75.267,42.518,75.445,42.613c1.297,0.346,2.628-0.425,2.974-1.723
	C1155.617,326.789,1154.846,325.457,1153.549,325.111z"/>
<path style="fill:#AB4234;" d="M943.648,279.78c1.149,0.696,2.645,0.328,3.34-0.821c14.758-24.374,36.461-36.928,55.474-43.438
	c18.996-6.502,35.223-6.876,38.561-6.873l0.625,0.006c1.341,0.037,2.459-1.022,2.496-2.364c0.036-1.342-1.023-2.459-2.364-2.496
	h-0.001l-0.756-0.007c-3.686,0.003-20.391,0.387-40.134,7.134c-19.728,6.739-42.57,19.926-58.063,45.52
	C942.132,277.59,942.499,279.086,943.648,279.78z"/>
<path style="fill:#AB4234;" d="M1013.775,207.861c12.627-5.536,26.876-7.425,40.27-7.422c13.392-0.001,25.913,1.879,35.061,3.763
	c4.573,0.941,8.305,1.882,10.885,2.586c1.29,0.352,2.293,0.644,2.967,0.847c0.676,0.203,1.007,0.311,1.007,0.311
	c1.277,0.416,2.647-0.281,3.065-1.559c0.415-1.277-0.281-2.649-1.558-3.065h-0.001c-0.14-0.037-23.745-7.736-51.427-7.745
	c-13.843,0.003-28.729,1.926-42.221,7.831c-1.231,0.539-1.791,1.972-1.251,3.201
	C1011.112,207.839,1012.545,208.399,1013.775,207.861z"/>
<path style="fill:#AB4234;" d="M1136.055,247.033h-0.002l0.138,0.038c1.794,0.516,19.532,5.958,36.526,31.958
	c9.218,14.107,14.281,23.075,19.199,29.624c4.894,6.557,9.882,10.658,18.043,14.172c1.231,0.536,2.663-0.028,3.198-1.259
	c0.535-1.231-0.028-2.663-1.258-3.199c-7.615-3.349-11.469-6.54-16.098-12.638c-4.602-6.105-9.739-15.154-19.013-29.359
	c-18.854-28.894-39.158-33.977-39.6-34.065c-1.307-0.313-2.618,0.491-2.932,1.797
	C1133.944,245.408,1134.749,246.72,1136.055,247.033z"/>
<path style="fill:#AB4234;" d="M1257.969,512.391c1.266-0.445,1.932-1.833,1.488-3.1c-1.333-3.788-1.917-7.695-1.919-11.813
	c-0.012-9.69,3.332-20.567,7.933-32.858c4.589-12.293,10.389-25.991,15.037-41.451c2.044-6.813,2.904-12.927,2.903-18.374
	c0.011-12.582-4.607-21.53-9.237-27.209c-4.632-5.694-9.235-8.205-9.422-8.31c-1.181-0.639-2.655-0.201-3.296,0.98
	c-0.639,1.181-0.2,2.655,0.981,3.295h-0.002l0.014,0.008c0.323,0.179,4.401,2.551,8.331,7.571c3.932,5.033,7.759,12.64,7.769,23.666
	c-0.002,4.936-0.775,10.57-2.699,16.976c-4.552,15.152-10.289,28.714-14.935,41.149c-4.635,12.436-8.227,23.757-8.239,34.559
	c-0.001,4.58,0.658,9.065,2.191,13.425C1255.313,512.171,1256.701,512.837,1257.969,512.391z"/>
<path style="fill:#AB4234;" d="M1216.586,551.14l-0.155-0.198c-1.697-2.186-16.187-21.98-16.162-49.839
	c0.002-8.577,1.356-17.93,4.875-27.836c0.448-1.265-0.213-2.655-1.478-3.104c-1.265-0.449-2.654,0.212-3.103,1.477
	c-3.712,10.447-5.155,20.374-5.154,29.463c0.032,31.551,17.236,52.865,17.391,53.086c0.841,1.046,2.372,1.212,3.419,0.37
	c1.046-0.842,1.212-2.373,0.37-3.419H1216.586z"/>
<path style="fill:#AB4234;" d="M1187.34,442.356c-1.232-0.53-2.662,0.039-3.191,1.272h-0.001c-0.014,0.033-4.535,10.549-9.072,23.56
	c-4.525,13.052-9.109,28.426-9.143,38.88c0,1.343,1.087,2.431,2.431,2.431c1.342,0,2.431-1.088,2.431-2.431
	c-0.035-9.119,4.39-24.485,8.872-37.28c2.237-6.417,4.476-12.237,6.156-16.446c1.679-4.21,2.786-6.787,2.789-6.794
	C1189.144,444.315,1188.574,442.886,1187.34,442.356z"/>
<path style="fill:#AB4234;" d="M983.739,511.157l0.252,0.545c1.191,2.607,6.057,14.296,6.036,26.214c0,2.9-0.285,5.812-0.951,8.611
	c-0.311,1.307,0.497,2.618,1.803,2.928c1.308,0.31,2.618-0.498,2.929-1.804c0.766-3.232,1.079-6.518,1.079-9.734
	c-0.029-15.063-6.714-28.71-6.773-28.88c-0.586-1.208-2.041-1.712-3.248-1.127c-1.207,0.585-1.712,2.039-1.126,3.247H983.739z"/>
</svg>
