<?xml version="1.0" encoding="UTF-8"?>
<svg version="1.1" xmlns="http://www.w3.org/2000/svg" width="2000" height="2000">
<path d="M0 0 C2.23178982 -0.00144142 4.46355644 -0.00574796 6.69534039 -0.01099443 C14.54998974 -0.02940991 22.40457208 -0.03767742 30.2592423 -0.03609133 C36.67373263 -0.03502953 43.08797829 -0.04906711 49.50240636 -0.07710695 C117.30865997 -0.36685787 117.30865997 -0.36685787 146.98897862 4.33451414 C148.86505908 4.59846092 150.7417255 4.85829604 152.61910558 5.11283445 C156.98530338 5.71734719 161.33112619 6.40876131 165.67647862 7.14701414 C166.7933405 7.33268446 166.7933405 7.33268446 167.93276525 7.52210569 C228.78260572 17.6589781 288.35792229 34.86811002 344.98897862 59.33451414 C346.17701085 59.84739988 347.36504308 60.36028563 348.58907628 60.88871336 C375.48520142 72.57270762 401.688161 85.48897082 426.98897862 100.33451414 C427.81977941 100.81952391 428.65058019 101.30453367 429.50655675 101.8042407 C449.61102232 113.57562019 469.29746012 126.02256349 488.02364659 139.89115477 C490.49222039 141.70409989 492.99265341 143.4690108 495.49703526 145.23197508 C503.20938463 150.66683039 510.62033581 156.44508694 517.98897862 162.33451414 C518.88487706 163.04607664 519.7807755 163.75763914 520.70382237 164.49076414 C523.13936405 166.4299632 525.56601747 168.37962503 527.98897862 170.33451414 C528.82429112 171.0061157 529.65960362 171.67771727 530.52022862 172.36967039 C541.57273601 181.32545211 552.31978891 190.63832436 562.68966222 200.37675047 C565.01208761 202.55084715 567.33670888 204.60312866 569.85616612 206.54935789 C570.91190831 207.43301023 570.91190831 207.43301023 571.98897862 208.33451414 C571.98897862 208.99451414 571.98897862 209.65451414 571.98897862 210.33451414 C572.53771642 210.55800535 573.08645421 210.78149656 573.65182042 211.01176023 C576.69010351 212.73132753 578.95416613 215.03304444 581.38350987 217.49857664 C581.89395345 218.00947844 582.40439702 218.52038023 582.93030858 219.0467639 C584.0092892 220.12876006 585.08584387 221.21318013 586.1601212 222.29984617 C587.78039657 223.93819691 589.40834795 225.56858351 591.03780675 227.19779539 C595.99654661 232.17361565 600.86237055 237.19087003 605.43014073 242.53275633 C608.14000804 245.66491306 611.01551116 248.64145325 613.86397862 251.64701414 C618.70202687 256.79166333 623.32316111 262.02715234 627.73116612 267.54935789 C629.84402815 270.15570846 632.01737242 272.68955729 634.22213292 275.21757078 C640.93295763 282.92427194 647.16890763 290.93114263 653.30147862 299.10258055 C654.94948304 301.28227621 656.62177438 303.44090816 658.30147862 305.59623289 C677.02529545 329.81690134 693.70548766 355.82880793 708.98897862 382.33451414 C709.41630284 383.0689575 709.84362706 383.80340086 710.2839005 384.56010008 C727.06642303 413.45414749 742.1152592 443.77146162 754.73897862 474.70951414 C755.07836461 475.53978117 755.4177506 476.3700482 755.76742101 477.22547483 C785.11890803 549.25972582 802.92285513 625.13915417 809.73897862 702.58451414 C809.82772756 703.59250563 809.82772756 703.59250563 809.9182694 704.62086058 C810.31392518 709.18950247 810.66115278 713.76054952 810.98897862 718.33451414 C811.08469151 719.61398924 811.18040441 720.89346434 811.27901769 722.21171141 C812.32059403 737.37470317 812.23333203 752.58067591 812.23897862 767.77201414 C812.23986234 768.86241562 812.23986234 768.86241562 812.2407639 769.97484541 C812.25515658 795.19797108 811.50314861 820.22219179 808.98897862 845.33451414 C808.91872472 846.05552305 808.84847081 846.77653196 808.776088 847.51938963 C800.67808921 930.43636967 778.52371128 1013.02682541 736.98897862 1102.33451414 C736.67918065 1102.97260008 736.36938268 1103.61068602 736.05019689 1104.26810789 C723.77816935 1129.52275828 710.34005934 1153.86277318 695.57882237 1177.76029539 C694.13731642 1180.09433083 692.70296508 1182.43259074 691.27022862 1184.77201414 C685.48393666 1194.17670939 679.35703947 1203.31450223 672.98897862 1212.33451414 C672.48495519 1213.04865477 671.98093175 1213.76279539 671.46163487 1214.49857664 C665.43091559 1223.01076396 659.2518178 1231.39911113 652.86397862 1239.64701414 C652.33892735 1240.32683348 651.81387609 1241.00665281 651.27291417 1241.70707273 C648.36285436 1245.43155957 645.36924556 1249.04248979 642.24755406 1252.59220457 C634.61022291 1261.35359447 628.33992417 1270.93352957 621.98897862 1280.64701414 C619.78336464 1283.99906904 617.57349051 1287.34830899 615.36397862 1290.69779539 C614.82241628 1291.52045897 614.28085393 1292.34312254 613.7228806 1293.19071531 C609.9389082 1298.9291247 606.08162605 1304.61154707 602.17328954 1310.2657733 C596.22982153 1318.86652814 590.39487086 1327.54059877 584.55147862 1336.20951414 C583.92781407 1337.13425535 583.30414952 1338.05899656 582.66158605 1339.01176023 C572.81156522 1353.61940957 563.01982481 1368.26506956 553.2599442 1382.9330554 C543.65033035 1397.37326619 533.97126999 1411.76540564 524.26192784 1426.13871336 C516.02637348 1438.33135649 507.82886553 1450.54785067 499.68209386 1462.79996824 C491.71138174 1474.78421196 483.66972826 1486.71980182 475.61397862 1498.64701414 C466.6974223 1511.84881308 457.81140133 1525.06961469 448.98897862 1538.33451414 C439.59344959 1552.46107041 430.12145344 1566.53477214 420.62520909 1580.59379148 C411.88246274 1593.53911883 403.1847315 1606.5130154 394.53521276 1619.52079344 C388.74359612 1628.2289862 382.92884818 1636.92069636 377.07100987 1645.58451414 C376.47810658 1646.46144926 375.88520329 1647.33838438 375.27433324 1648.24189329 C372.8428546 1651.83759124 370.41116245 1655.43314473 367.97924352 1659.0285449 C357.1433472 1675.05694748 346.46839756 1691.18795602 335.88082433 1707.38138914 C330.72437863 1715.25418867 325.5245975 1723.07329096 320.05538487 1730.73295164 C312.90986994 1740.74158274 306.21444571 1751.04104317 299.48897862 1761.33451414 C292.32416698 1772.30041135 285.14212713 1783.22354548 277.52717137 1793.88312864 C270.93960698 1803.14833358 264.77416837 1812.69746623 258.55147862 1822.20951414 C250.57205665 1834.39599978 242.53562792 1846.53089076 234.28219151 1858.53373289 C228.8958495 1866.37113302 223.59172857 1874.26442289 218.2773087 1882.15067625 C216.42488576 1884.89937769 214.57126077 1887.64726558 212.71749425 1890.39506102 C205.6301044 1900.90242876 205.6301044 1900.90242876 198.59102941 1911.44218016 C198.05212575 1912.25319685 197.51322209 1913.06421354 196.95798802 1913.8998065 C195.95717346 1915.4077634 194.95780922 1916.91668444 193.96027684 1918.42681456 C168.20663233 1957.24965309 129.90255126 1985.43763272 83.89425206 1994.9761157 C37.31299753 2003.78954047 -10.21461195 1995.95540037 -49.74051356 1969.16215086 C-56.12776682 1964.70021455 -62.00420532 1959.7229751 -67.71805263 1954.43607664 C-69.74572399 1952.57766574 -71.8262869 1950.83223665 -73.94852138 1949.08451414 C-85.70660335 1938.73458569 -94.25614342 1925.16902265 -103.01102138 1912.33451414 C-103.95630702 1910.95271971 -103.95630702 1910.95271971 -104.92068934 1909.54301023 C-108.11895564 1904.86737631 -111.31032653 1900.1871156 -114.49539638 1895.50248289 C-121.84760928 1884.68935988 -129.28432197 1873.93687489 -136.76102138 1863.20951414 C-143.41823742 1853.65627468 -149.99763671 1844.05231364 -156.54617763 1834.42435789 C-160.90733915 1828.01257606 -165.30192625 1821.62399737 -169.7004745 1815.23783445 C-171.51053462 1812.60906606 -173.31857254 1809.97890978 -175.12649989 1807.3486743 C-176.04869747 1806.00708903 -176.97106048 1804.66561745 -177.89358974 1803.32426023 C-180.150199 1800.04300895 -182.4049756 1796.76053131 -184.65555263 1793.47513914 C-189.64927553 1786.19032998 -194.68495812 1778.9372179 -199.76102138 1771.70951414 C-206.70457099 1761.81806857 -213.50982378 1751.83506644 -220.30496669 1741.84135008 C-226.7204067 1732.41465603 -233.20878733 1723.04159381 -239.76102138 1713.70951414 C-246.70024723 1703.82393929 -253.50109071 1693.84685167 -260.29178309 1683.8589282 C-264.08155984 1678.29427448 -267.90332651 1672.75160474 -271.72244716 1667.20707273 C-273.00675872 1665.34070864 -274.28857488 1663.47265609 -275.56961513 1661.60404539 C-280.93392794 1653.78276471 -286.33733249 1645.98974714 -291.76102138 1638.20951414 C-298.4183335 1628.65634246 -304.99763752 1619.05231245 -311.54617763 1609.42435789 C-315.91442936 1603.00215202 -320.31654851 1596.60347868 -324.72244716 1590.20707273 C-326.00675872 1588.34070864 -327.28857488 1586.47265609 -328.56961513 1584.60404539 C-333.93392794 1576.78276471 -339.33733249 1568.98974714 -344.76102138 1561.20951414 C-351.4183335 1551.65634246 -357.99763752 1542.05231245 -364.54617763 1532.42435789 C-368.90733915 1526.01257606 -373.30192625 1519.62399737 -377.7004745 1513.23783445 C-379.51036823 1510.60930772 -381.31823697 1507.97939115 -383.12601161 1505.34940672 C-384.04986428 1504.00539894 -384.97385533 1502.66148627 -385.89798427 1501.31766844 C-388.12903609 1498.07332591 -390.35879264 1494.82811218 -392.58524013 1491.58060789 C-397.94479386 1483.76745288 -403.3427033 1475.98204275 -408.76102138 1468.20951414 C-415.4183335 1458.65634246 -421.99763752 1449.05231245 -428.54617763 1439.42435789 C-432.90733915 1433.01257606 -437.30192625 1426.62399737 -441.7004745 1420.23783445 C-443.97257199 1416.93804458 -446.24160051 1413.63614513 -448.51102138 1410.33451414 C-449.42767424 1409.00117132 -450.34434088 1407.66783797 -451.26102138 1406.33451414 C-522.76102138 1302.33451414 -522.76102138 1302.33451414 -524.13602138 1300.33378172 C-525.05177633 1299.0022623 -525.96844162 1297.6713685 -526.88602138 1296.34110594 C-529.1995533 1292.98459505 -531.49563752 1289.61827202 -533.76102138 1286.22904539 C-539.67668286 1277.42065273 -546.04764415 1269.33143611 -553.01102138 1261.33451414 C-585.97640765 1222.10394788 -614.74602504 1178.89178675 -638.77566981 1133.64945555 C-639.93499517 1131.47698064 -641.11244902 1129.31583356 -642.30008388 1127.15873289 C-642.63701259 1126.54441404 -642.9739413 1125.9300952 -643.32107997 1125.29716063 C-644.18056988 1123.73110303 -645.04105673 1122.16559268 -645.90164638 1120.60013914 C-647.01102138 1118.33451414 -647.01102138 1118.33451414 -647.01102138 1116.33451414 C-647.75746913 1116.66024412 -648.50391688 1116.9859741 -649.27298427 1117.32157469 C-657.81020382 1121.04325971 -666.35590177 1124.74492463 -674.90933681 1128.42917967 C-676.27026268 1129.01542041 -677.63103146 1129.60202604 -678.9916122 1130.18906736 C-737.94069037 1155.61341213 -800.20008927 1178.27088247 -865.01102138 1180.33451414 C-866.29621669 1180.37576414 -867.581412 1180.41701414 -868.90555263 1180.45951414 C-907.45397208 1181.07444406 -943.44486873 1171.00880721 -971.60818934 1144.06766844 C-985.92227028 1130.07898835 -1000.96444256 1111.10731214 -1001.36586452 1090.21769285 C-1001.37122722 1089.33843138 -1001.37658992 1088.4591699 -1001.38211513 1087.55326414 C-1001.3911436 1086.6221179 -1001.40017207 1085.69097166 -1001.40947413 1084.73160887 C-1001.42393111 1082.76496648 -1001.432852 1080.79827649 -1001.43655849 1078.83158445 C-1001.44837669 1075.87076213 -1001.49754075 1072.91208027 -1001.54813075 1069.95170164 C-1001.64848011 1058.40424074 -1000.70237745 1048.96781461 -996.01102138 1038.33451414 C-995.61922694 1037.44167723 -995.22743251 1036.54884031 -994.82376552 1035.62894773 C-993.72896936 1033.29548271 -992.55885492 1031.03382176 -991.32352138 1028.77201414 C-990.894183 1027.97392332 -990.46484462 1027.1758325 -990.02249599 1026.35355711 C-983.16295295 1013.87461441 -974.42297617 1002.9663569 -965.01102138 992.33451414 C-964.5500204 991.8103491 -964.08901942 991.28618406 -963.61404872 990.74613523 C-952.18139584 977.81829018 -939.58694456 965.98757567 -926.01102138 955.33451414 C-924.92460442 954.46792739 -923.83869328 953.60070623 -922.75320888 952.73295164 C-867.94790574 909.0827789 -805.01053082 875.3607194 -741.01102138 847.33451414 C-740.68102138 847.99451414 -740.35102138 848.65451414 -740.01102138 849.33451414 C-740.88758388 849.8101782 -741.76414638 850.28584227 -742.66727138 850.77592039 C-760.8255202 860.74913613 -778.36240303 871.7940432 -795.12332606 883.96879148 C-796.97516545 885.30857285 -798.83806785 886.6310415 -800.70633388 887.94779539 C-813.30599608 896.8366334 -825.33588579 906.26276384 -837.01102138 916.33451414 C-837.75094325 916.97260008 -838.49086513 917.61068602 -839.25320888 918.26810789 C-841.18268073 919.94574105 -843.09898062 921.6370511 -845.01102138 923.33451414 C-845.78832606 924.01900633 -846.56563075 924.70349852 -847.36649013 925.40873289 C-868.98690753 944.61570835 -891.27184599 968.9998527 -895.35086513 998.81888914 C-895.84176235 1009.57935625 -892.20040233 1019.70316899 -886.01102138 1028.33451414 C-885.60496669 1028.93521727 -885.198912 1029.53592039 -884.78055263 1030.15482664 C-872.21306226 1046.78258313 -848.12559093 1055.32065132 -828.47903895 1058.45902586 C-805.63922514 1061.48152307 -781.6731765 1059.73912513 -759.01102138 1056.33451414 C-757.95479579 1056.17885984 -756.8985702 1056.02320555 -755.81033778 1055.86283445 C-736.2647956 1052.89051191 -717.09321331 1048.20806655 -697.89774013 1043.54154539 C-697.10406032 1043.34898161 -696.31038051 1043.15641783 -695.49264979 1042.95801878 C-690.96652489 1041.84861018 -686.48349003 1040.64388209 -682.01102138 1039.33451414 C-682.47774257 1038.01121092 -682.47774257 1038.01121092 -682.95389247 1036.6611743 C-705.54665999 972.43138534 -721.18724738 907.0022248 -727.32352138 839.08451414 C-727.40492366 838.18515135 -727.48632594 837.28578856 -727.57019496 836.35917234 C-729.53132052 814.33706605 -730.21789179 792.44315387 -730.19852138 770.33451414 C-730.19791713 769.05694242 -730.19731288 767.77937071 -730.19669032 766.4630847 C-730.1701087 745.69360107 -729.8075353 725.03085623 -728.01102138 704.33451414 C-727.91627528 703.24115751 -727.91627528 703.24115751 -727.81961513 702.12571287 C-721.14679632 626.41252524 -703.38947961 551.90107439 -624.67508388 380.12308836 C-623.06809674 377.43015893 -621.47544161 374.72924586 -619.88602138 372.02592039 C-595.65283173 330.98217883 -566.50285758 291.92103634 -534.26883388 256.80717039 C-532.35920987 254.71583475 -530.48770886 252.6019255 -528.63602138 250.45951414 C-519.94831399 240.48668276 -510.80432622 230.96179866 -501.43680263 221.6299243 C-499.74420791 219.94275456 -498.05711541 218.25021219 -496.37039638 216.55717039 C-491.30341917 211.48709145 -486.2242284 206.50265456 -480.76834559 201.84672117 C-477.82353817 199.31266488 -475.02423514 196.62459723 -472.19852138 193.95951414 C-467.28988932 189.37093926 -462.29254743 184.97529127 -457.04617763 180.77201414 C-453.95401297 178.28873133 -450.90041254 175.76334692 -447.84866786 173.23075438 C-440.03254379 166.75310813 -432.13991032 160.41763632 -424.01102138 154.33451414 C-423.30219813 153.80358152 -422.59337489 153.27264891 -421.86307216 152.72562742 C-411.68190379 145.11925401 -401.39852072 137.69493564 -390.86258388 130.58744383 C-389.12408923 129.41102577 -387.39487302 128.22215835 -385.66727138 127.02982664 C-325.86163332 86.08503115 -259.10163301 54.99639086 -190.17242885 33.02765989 C-187.95593071 32.31684701 -185.74400776 31.59292491 -183.53226161 30.86747313 C-171.17463772 26.84586677 -158.6848845 23.52256675 -146.07352138 20.39701414 C-145.03021663 20.13749968 -143.98691188 19.87798521 -142.91199183 19.61060667 C-113.05000891 12.20861778 -83.14749899 6.50932498 -52.58931422 2.8866992 C-49.756621 2.54971849 -46.93154525 2.18875282 -44.10416102 1.80697203 C-29.44546013 -0.06826248 -14.75137712 0.00537801 0 0 Z " fill="#5FCEFD" transform="translate(1001.0110213756561,-0.33451414108276367)"/>
<path d="M0 0 C2.22194219 0.46951377 4.44465995 0.90565317 6.67822266 1.31542969 C77.3636747 14.44824591 145.33814403 48.25583189 201.56494141 92.54199219 C202.81791016 93.52039063 202.81791016 93.52039063 204.09619141 94.51855469 C224.62792664 110.71729385 245.02538492 128.6451723 261.94384766 148.64355469 C263.8458779 150.87099252 265.8310186 153.0122219 267.81494141 155.16699219 C272.87672672 160.78548823 277.53045179 166.68085324 282.13232422 172.67675781 C283.07347701 173.90211694 284.01804123 175.12486485 284.96630859 176.34472656 C322.80614088 225.05988991 351.11251588 281.27921535 366.8671875 340.90380859 C367.47921805 343.21787513 368.10520478 345.5272609 368.74072266 347.83496094 C375.52584303 372.69627074 375.52584303 372.69627074 376.56494141 384.54199219 C376.89494141 385.20199219 377.22494141 385.86199219 377.56494141 386.54199219 C377.84277203 388.30461657 378.0751673 390.07451935 378.28369141 391.84667969 C378.41130859 392.905 378.53892578 393.96332031 378.67041016 395.05371094 C378.80060547 396.16359375 378.93080078 397.27347656 379.06494141 398.41699219 C379.32307225 400.60215925 379.58340095 402.78706809 379.84619141 404.97167969 C379.96027344 405.94347168 380.07435547 406.91526367 380.19189453 407.91650391 C380.50740752 410.46924605 380.50740752 410.46924605 381.09228516 412.6328125 C381.59850563 414.67756669 381.75452487 416.55621284 381.84619141 418.65917969 C381.88357422 419.43132812 381.92095703 420.20347656 381.95947266 420.99902344 C382.01167969 422.19591797 382.01167969 422.19591797 382.06494141 423.41699219 C382.13457222 424.9978695 382.20742425 426.57860863 382.28369141 428.15917969 C382.32913086 429.20501221 382.32913086 429.20501221 382.37548828 430.27197266 C382.53184098 432.6206503 382.53184098 432.6206503 383.07202148 435.21362305 C383.71459645 439.5525158 383.72683519 443.79836492 383.73291016 448.17871094 C383.73728088 449.11787354 383.74165161 450.05703613 383.74615479 451.0246582 C383.94891619 511.65902595 379.85859602 576.34983904 354.56494141 632.54199219 C353.82634404 634.47591675 353.09720163 636.41347815 352.37744141 638.35449219 C349.12204832 646.90239551 345.33327522 655.21051469 341.56494141 663.54199219 C340.31583984 663.32542969 339.06673828 663.10886719 337.77978516 662.88574219 C317.31237962 659.52821249 298.36473878 658.74807675 278.56494141 665.54199219 C277.88995605 665.76661133 277.2149707 665.99123047 276.51953125 666.22265625 C253.85946535 673.9236037 234.74481117 689.92207846 222.25634766 710.20605469 C220.56494141 712.54199219 220.56494141 712.54199219 217.56494141 713.54199219 C214.80104693 712.37390018 212.17372315 711.1439196 209.50244141 709.79199219 C203.29603503 706.76920986 197.33923872 704.03863927 190.56494141 702.54199219 C189.70642578 702.33960938 188.84791016 702.13722656 187.96337891 701.92871094 C165.74099545 697.42913743 143.80644792 701.66404093 124.56494141 713.54199219 C121.01842591 716.00352249 117.78780177 718.67534271 114.56494141 721.54199219 C113.80955078 722.14398437 113.05416016 722.74597656 112.27587891 723.36621094 C99.90332521 733.50660288 92.06148383 748.34744303 87.75244141 763.54199219 C87.54522461 764.23373535 87.33800781 764.92547852 87.12451172 765.63818359 C84.68838273 774.96161487 85.06323445 783.57613139 84.56494141 793.54199219 C140.33494141 793.54199219 196.10494141 793.54199219 253.56494141 793.54199219 C251.58494141 795.85199219 249.60494141 798.16199219 247.56494141 800.54199219 C247.01708984 801.20585938 246.46923828 801.86972656 245.90478516 802.55371094 C222.04575906 831.06491483 187.93141203 854.29207113 156.56494141 873.54199219 C155.82034668 874.00057617 155.07575195 874.45916016 154.30859375 874.93164062 C142.06345832 882.42912563 129.36693615 889.05296538 116.56494141 895.54199219 C115.79553223 895.93741211 115.02612305 896.33283203 114.23339844 896.74023438 C97.95318569 905.06212972 80.69464765 911.22189727 63.56494141 917.54199219 C61.72657715 918.22237549 61.72657715 918.22237549 59.85107422 918.91650391 C52.29273864 921.66982311 44.6993998 924.05077626 36.93994141 926.16699219 C35.91126953 926.45316406 34.88259766 926.73933594 33.82275391 927.03417969 C30.74084278 927.88596417 27.65464062 928.71893285 24.56494141 929.54199219 C23.63423828 929.79110352 22.70353516 930.04021484 21.74462891 930.296875 C12.84504984 932.60428647 3.8496817 934.36006081 -5.18505859 936.04199219 C-6.00888031 936.19573303 -6.83270203 936.34947388 -7.68148804 936.50787354 C-24.20762237 939.5594948 -40.6694725 941.40815188 -57.43505859 942.54199219 C-58.72629639 942.63625488 -60.01753418 942.73051758 -61.34790039 942.82763672 C-72.15223303 943.5760491 -82.93184157 943.69658003 -93.75952148 943.67236328 C-96.657278 943.66692705 -99.55488441 943.67238556 -102.45263672 943.67871094 C-104.31526727 943.67805127 -106.17789772 943.67677243 -108.04052734 943.67480469 C-108.89680222 943.67682892 -109.75307709 943.67885315 -110.63529968 943.68093872 C-115.03292409 943.66373097 -119.09547654 943.3181449 -123.43505859 942.54199219 C-126.02417368 942.37341703 -128.6055986 942.23232788 -131.19677734 942.11621094 C-140.2802372 941.63885036 -149.23978126 940.59286271 -158.24755859 939.35449219 C-159.43771576 939.19317307 -159.43771576 939.19317307 -160.6519165 939.02859497 C-201.56319937 933.43687201 -241.61565257 922.08652594 -279.43505859 905.54199219 C-280.46566406 905.09210937 -281.49626953 904.64222656 -282.55810547 904.17871094 C-305.81727718 893.94290551 -327.95919668 882.12218682 -349.43505859 868.54199219 C-350.05413086 868.15060059 -350.67320312 867.75920898 -351.31103516 867.35595703 C-364.53563124 858.92013323 -377.34513865 849.53022209 -389.43505859 839.54199219 C-390.27681641 838.86136719 -391.11857422 838.18074219 -391.98583984 837.47949219 C-402.91597931 828.62149204 -413.65469761 819.67234621 -423.43505859 809.54199219 C-426.3769372 806.57950498 -429.34627698 803.64630079 -432.32568359 800.72167969 C-439.41297636 793.73884999 -446.33839781 786.83693847 -452.47802734 778.99511719 C-454.46677166 776.50224008 -456.57363048 774.18673478 -458.74755859 771.85449219 C-464.27291295 765.78140705 -469.0781438 759.19943409 -473.9296875 752.58691406 C-475.36181053 750.64149361 -476.80790976 748.70745423 -478.25927734 746.77636719 C-485.09592864 737.64060056 -491.4150926 728.23417605 -497.43505859 718.54199219 C-498.01739258 717.60677734 -498.59972656 716.6715625 -499.19970703 715.70800781 C-501.04521756 712.72522695 -502.86848216 709.72996854 -504.68505859 706.72949219 C-505.27077637 705.78001709 -505.85649414 704.83054199 -506.45996094 703.85229492 C-506.99314941 702.95969971 -507.52633789 702.06710449 -508.07568359 701.14746094 C-508.55553711 700.3549292 -509.03539062 699.56239746 -509.52978516 698.74584961 C-510.43505859 696.54199219 -510.43505859 696.54199219 -510.31103516 694.42993164 C-509.19023493 692.01433852 -508.00070199 691.18557719 -505.77880859 689.72949219 C-505.0122998 689.21765381 -504.24579102 688.70581543 -503.45605469 688.1784668 C-502.62412598 687.63843018 -501.79219727 687.09839355 -500.93505859 686.54199219 C-499.18688071 685.3778011 -497.43950008 684.21241204 -495.69287109 683.04589844 C-494.80889648 682.45953613 -493.92492187 681.87317383 -493.01416016 681.26904297 C-489.23312976 678.73714132 -485.51853804 676.1160609 -481.81005859 673.47949219 C-480.41034137 672.48727315 -479.01060179 671.49508564 -477.61083984 670.50292969 C-476.57757568 669.76961426 -476.57757568 669.76961426 -475.5234375 669.02148438 C-473.4279987 667.53699067 -471.32871568 666.05810878 -469.22802734 664.58105469 C-459.6618914 657.85280976 -450.16244563 651.03700551 -440.69238281 644.17431641 C-438.46558665 642.56406775 -436.23433658 640.96020905 -434.00146484 639.35839844 C-423.49992127 631.81782075 -413.13167278 624.11190355 -402.80859375 616.32910156 C-400.56609767 614.64065564 -398.31995951 612.95723182 -396.07177734 611.27636719 C-388.86087162 605.884797 -381.69019037 600.4473161 -374.56396484 594.94433594 C-369.55478908 591.09833956 -364.49712579 587.31802069 -359.43505859 583.54199219 C-360.33482422 583.991875 -361.23458984 584.44175781 -362.16162109 584.90527344 C-362.76981689 585.20933105 -363.3780127 585.51338867 -364.00463867 585.82666016 C-365.40564709 586.52724757 -366.80652048 587.22810506 -368.20727539 587.92919922 C-372.3777793 590.01601517 -376.55098195 592.09720414 -380.72802734 594.17089844 C-381.64310059 594.6261792 -382.55817383 595.08145996 -383.50097656 595.55053711 C-385.2504439 596.42091655 -387.00068742 597.28973883 -388.75195312 598.15649414 C-393.73124899 600.6367098 -398.66819189 603.18698547 -403.58213806 605.79359436 C-415.80225108 612.27263477 -428.15540319 618.47905523 -440.53076172 624.6550293 C-443.56474243 626.16918283 -446.59690333 627.68694067 -449.62859726 629.20566654 C-464.82127059 636.81423459 -480.07601081 644.27509886 -495.43505859 651.54199219 C-496.88983611 652.23245077 -498.34459047 652.92295814 -499.79931641 653.61352539 C-503.42235865 655.33074308 -507.05291951 657.03159156 -510.68505859 658.72949219 C-511.28705078 659.0141333 -511.88904297 659.29877441 -512.50927734 659.59204102 C-514.2788396 660.42847989 -516.05219904 661.2568709 -517.82568359 662.08496094 C-518.83663086 662.55957764 -519.84757813 663.03419434 -520.88916016 663.52319336 C-523.43505859 664.54199219 -523.43505859 664.54199219 -526.43505859 664.54199219 C-535.29665085 643.91423333 -542.72946886 622.95900219 -549.43505859 601.54199219 C-550.02528809 599.65891357 -550.02528809 599.65891357 -550.62744141 597.73779297 C-560.14752123 566.7742208 -565.02744558 534.78664173 -567.43505859 502.54199219 C-567.57645264 500.92296997 -567.57645264 500.92296997 -567.72070312 499.27124023 C-568.57009402 489.00439637 -568.59120744 478.77324783 -568.56005859 468.47949219 C-568.55850769 467.57157928 -568.55695679 466.66366638 -568.55535889 465.72824097 C-568.51476684 445.49488859 -568.51476684 445.49488859 -568.06005859 435.60449219 C-568.02928223 434.91282959 -567.99850586 434.22116699 -567.96679688 433.50854492 C-567.48867384 425.1532953 -566.35889882 416.85655422 -565.43505859 408.54199219 C-495.47505859 408.54199219 -425.51505859 408.54199219 -353.43505859 408.54199219 C-355.43243374 382.57611523 -358.22331471 363.79155639 -375.43505859 344.54199219 C-376.17369141 343.70925781 -376.91232422 342.87652344 -377.67333984 342.01855469 C-387.07912254 332.01240289 -398.47326653 325.01044268 -411.43505859 320.54199219 C-412.50369141 320.15011719 -413.57232422 319.75824219 -414.67333984 319.35449219 C-440.27349684 311.15332955 -465.36119791 317.8985671 -488.43505859 329.54199219 C-488.90814453 328.79175781 -489.38123047 328.04152344 -489.86865234 327.26855469 C-494.52927351 320.05503967 -499.49069715 313.75282501 -505.43505859 307.54199219 C-506.46373047 306.40117188 -506.46373047 306.40117188 -507.51318359 305.23730469 C-512.83395799 299.54210543 -518.69602789 295.52076099 -525.29833984 291.48730469 C-527.79444323 289.9392854 -530.12838097 288.35316129 -532.43505859 286.54199219 C-530.06901792 278.83803277 -526.90561905 271.65111509 -523.49755859 264.35449219 C-523.21194061 263.74216736 -522.92632263 263.12984253 -522.63204956 262.4989624 C-513.32627465 242.60292353 -502.54480191 223.86121493 -490.43505859 205.54199219 C-489.94650391 204.80223145 -489.45794922 204.0624707 -488.95458984 203.30029297 C-481.90652182 192.6961094 -474.27248374 182.57229962 -466.43505859 172.54199219 C-465.68095703 171.57132813 -464.92685547 170.60066406 -464.14990234 169.60058594 C-460.22117493 164.60961811 -456.09438729 159.84462354 -451.80615234 155.15917969 C-449.87477333 153.02734453 -447.97603741 150.87546123 -446.08740234 148.70605469 C-432.61935418 133.28671606 -418.26331526 118.38035552 -402.12255859 105.72949219 C-399.74826455 103.79692727 -397.48686202 101.79692941 -395.21630859 99.74511719 C-390.64177281 95.65827985 -385.86257438 91.94082716 -380.93505859 88.29199219 C-380.07066162 87.64866943 -379.20626465 87.00534668 -378.31567383 86.3425293 C-366.0152466 77.223383 -353.66839672 68.27337057 -340.43505859 60.54199219 C-339.69868164 60.10951172 -338.96230469 59.67703125 -338.20361328 59.23144531 C-279.94497029 25.13224761 -217.38955427 2.54410083 -150.31005859 -5.70800781 C-149.63839661 -5.79127319 -148.96673462 -5.87453857 -148.27471924 -5.96032715 C-99.20437853 -11.96044442 -48.34699984 -10.36185915 0 0 Z " fill="#FECF26" transform="translate(1134.43505859375,261.4580078125)"/>
<path d="M0 0 C1.92254061 1.5343353 3.83907306 3.07622453 5.75 4.625 C7.98604177 6.33135006 10.2426344 8.00951154 12.5 9.6875 C14.25 11 16 12.3125 17.75 13.625 C17.18662958 17.83462898 15.78792386 20.46744229 13.390625 23.94921875 C12.34515503 25.47857056 12.34515503 25.47857056 11.27856445 27.03881836 C10.52663818 28.1191333 9.77471191 29.19944824 9 30.3125 C8.22117571 31.44184735 7.44277786 32.5714889 6.66479492 33.70141602 C-2.05614873 46.33564274 -10.98107349 58.79362823 -20.375 70.9375 C-20.90053467 71.61804443 -21.42606934 72.29858887 -21.9675293 72.99975586 C-24.87732121 76.7233144 -27.87032174 80.33364503 -30.99142456 83.88269043 C-38.62875572 92.64408033 -44.89905445 102.22401543 -51.25 111.9375 C-53.45561398 115.2895549 -55.66548811 118.63879484 -57.875 121.98828125 C-58.41656235 122.81094482 -58.95812469 123.6336084 -59.51609802 124.48120117 C-63.30007042 130.21961056 -67.15735258 135.90203293 -71.06568909 141.55625916 C-77.00915709 150.157014 -82.84410776 158.83108463 -88.6875 167.5 C-89.31116455 168.42474121 -89.9348291 169.34948242 -90.57739258 170.30224609 C-100.42741341 184.90989543 -110.21915381 199.55555542 -119.97903442 214.22354126 C-129.58864827 228.66375205 -139.26770863 243.0558915 -148.97705078 257.42919922 C-157.21260514 269.62184235 -165.41011309 281.83833653 -173.55688477 294.0904541 C-181.52759688 306.07469782 -189.56925037 318.01028768 -197.625 329.9375 C-206.54155632 343.13929894 -215.42757729 356.36010055 -224.25 369.625 C-233.64552903 383.75155627 -243.11752518 397.825258 -252.61376953 411.88427734 C-261.35651589 424.82960469 -270.05424713 437.80350126 -278.70376587 450.8112793 C-284.4953825 459.51947206 -290.31013044 468.21118222 -296.16796875 476.875 C-296.76087204 477.75193512 -297.35377533 478.62887024 -297.96464539 479.53237915 C-300.39612403 483.1280771 -302.82781617 486.72363059 -305.25973511 490.31903076 C-316.09563142 506.34743334 -326.77058107 522.47844188 -337.3581543 538.671875 C-342.5146 546.54467453 -347.71438112 554.36377682 -353.18359375 562.0234375 C-360.32910868 572.03206859 -367.02453292 582.33152903 -373.75 592.625 C-380.91481165 603.59089721 -388.09685149 614.51403134 -395.71180725 625.1736145 C-402.29937164 634.43881943 -408.46481025 643.98795209 -414.6875 653.5 C-422.66692198 665.68648564 -430.7033507 677.82137662 -438.95678711 689.82421875 C-444.34312912 697.66161888 -449.64725006 705.55490875 -454.96166992 713.44116211 C-456.81409286 716.18986355 -458.66771785 718.93775144 -460.52148438 721.68554688 C-467.60887423 732.19291462 -467.60887423 732.19291462 -474.64794922 742.73266602 C-475.18685287 743.54368271 -475.72575653 744.3546994 -476.2809906 745.19029236 C-477.28180516 746.69824926 -478.2811694 748.2071703 -479.27870178 749.71730042 C-505.0323463 788.54013895 -543.33642736 816.72811858 -589.34472656 826.26660156 C-635.9259811 835.08002633 -683.45359058 827.24588623 -722.97949219 800.45263672 C-729.36674545 795.99070041 -735.24318394 791.01346096 -740.95703125 785.7265625 C-742.98470262 783.8681516 -745.06526552 782.12272251 -747.1875 780.375 C-758.94558198 770.02507155 -767.49512204 756.45950851 -776.25 743.625 C-776.88019043 742.70380371 -777.51038086 741.78260742 -778.15966797 740.83349609 C-781.35793426 736.15786217 -784.54930515 731.47760146 -787.734375 726.79296875 C-795.08658791 715.97984574 -802.5233006 705.22736075 -810 694.5 C-816.65721604 684.94676054 -823.23661533 675.3427995 -829.78515625 665.71484375 C-834.14631778 659.30306192 -838.54090487 652.91448323 -842.93945312 646.52832031 C-844.74951325 643.89955192 -846.55755116 641.26939564 -848.36547852 638.63916016 C-849.2876761 637.29757489 -850.2100391 635.95610331 -851.13256836 634.61474609 C-853.38917763 631.3334948 -855.64395423 628.05101717 -857.89453125 624.765625 C-862.88825415 617.48081584 -867.92393674 610.22770376 -873 603 C-879.94354961 593.10855443 -886.7488024 583.1255523 -893.54394531 573.13183594 C-899.95938532 563.70514189 -906.44776595 554.33207967 -913 545 C-919.93922585 535.11442515 -926.74006933 525.13733752 -933.53076172 515.14941406 C-937.32053846 509.58476034 -941.14230513 504.0420906 -944.96142578 498.49755859 C-946.24573734 496.6311945 -947.52755351 494.76314195 -948.80859375 492.89453125 C-954.17290657 485.07325057 -959.57631111 477.280233 -965 469.5 C-971.65731212 459.94682831 -978.23661614 450.34279831 -984.78515625 440.71484375 C-989.15340799 434.29263788 -993.55552714 427.89396454 -997.96142578 421.49755859 C-999.24573734 419.6311945 -1000.52755351 417.76314195 -1001.80859375 415.89453125 C-1007.17290657 408.07325057 -1012.57631111 400.280233 -1018 392.5 C-1024.65731212 382.94682831 -1031.23661614 373.34279831 -1037.78515625 363.71484375 C-1042.14631778 357.30306192 -1046.54090487 350.91448323 -1050.93945312 344.52832031 C-1052.74934686 341.89979358 -1054.5572156 339.26987701 -1056.36499023 336.63989258 C-1057.28884291 335.2958848 -1058.21283396 333.95197213 -1059.13696289 332.6081543 C-1061.36801471 329.36381177 -1063.59777126 326.11859804 -1065.82421875 322.87109375 C-1071.18377249 315.05793873 -1076.58168193 307.27252861 -1082 299.5 C-1088.65731212 289.94682831 -1095.23661614 280.34279831 -1101.78515625 270.71484375 C-1106.14631778 264.30306192 -1110.54090487 257.91448323 -1114.93945312 251.52832031 C-1117.21155061 248.22853044 -1119.48057913 244.92663099 -1121.75 241.625 C-1122.66665286 240.29165718 -1123.58331951 238.95832383 -1124.5 237.625 C-1196 133.625 -1196 133.625 -1197.375 131.62426758 C-1198.29075496 130.29274816 -1199.20742024 128.96185436 -1200.125 127.6315918 C-1202.43853192 124.27508091 -1204.73461614 120.90875788 -1207 117.51953125 C-1212.53289074 109.28108247 -1218.40617932 101.61706806 -1224.93457031 94.14648438 C-1227.08723523 91.65661656 -1229.16683259 89.11084071 -1231.25 86.5625 C-1232.301875 85.27666016 -1232.301875 85.27666016 -1233.375 83.96484375 C-1233.99375 83.19269531 -1234.6125 82.42054687 -1235.25 81.625 C-1235.8275 80.92503906 -1236.405 80.22507812 -1237 79.50390625 C-1238.25 77.625 -1238.25 77.625 -1238.25 74.625 C-1236.1953125 72.6796875 -1236.1953125 72.6796875 -1233.375 70.5 C-1229.5521101 67.47884149 -1225.84246564 64.41713089 -1222.25 61.125 C-1218.93010514 58.10217579 -1215.55235888 55.19987839 -1212.0625 52.375 C-1207.58785819 48.75237038 -1203.21605104 45.03025597 -1198.875 41.25 C-1193.62649506 36.68002666 -1188.358143 32.13753207 -1183.03051758 27.65991211 C-1180.30033022 25.36511183 -1177.587674 23.05426074 -1174.90234375 20.70703125 C-1157.99111502 5.99711855 -1141.13955763 -0.79643223 -1118.62109375 0.41796875 C-1103.32789404 1.75328932 -1088.7075864 9.63958589 -1078.25 20.625 C-1077.64389893 21.25510986 -1077.03779785 21.88521973 -1076.41333008 22.53442383 C-1071.23335095 28.10452691 -1067.39597261 33.94262594 -1063.6875 40.5625 C-1062.79695923 42.12025146 -1062.79695923 42.12025146 -1061.88842773 43.70947266 C-1060.63472096 45.90309024 -1059.38519115 48.09909984 -1058.13964844 50.29736328 C-1055.6761285 54.63557733 -1053.17842146 58.95359004 -1050.67993164 63.27172852 C-1048.79476183 66.53066437 -1046.91426273 69.79225221 -1045.03515625 73.0546875 C-1041.27644619 79.57986243 -1037.5135825 86.1026345 -1033.75 92.625 C-1032.49998121 94.79165583 -1031.24998122 96.9583225 -1030 99.125 C-1029.071875 100.73375 -1029.071875 100.73375 -1028.125 102.375 C-1007.5 138.125 -1007.5 138.125 -1005.62475586 141.37548828 C-1004.37564482 143.54057071 -1003.12645871 145.70560982 -1001.87719727 147.87060547 C-998.73797691 153.31115706 -995.60009437 158.75247216 -992.46484375 164.1953125 C-984.6513114 177.75610509 -976.7963103 191.29186512 -968.8984375 204.80371094 C-966.01278557 209.74248369 -963.13154051 214.68382765 -960.25 219.625 C-942.91987734 214.0610917 -925.61359608 208.42822332 -908.34765625 202.66796875 C-907.39051696 202.34866803 -907.39051696 202.34866803 -906.41404152 202.02291679 C-900.61935215 200.08935816 -894.82538338 198.15365156 -889.0329895 196.21322632 C-886.55773187 195.38402733 -884.08229907 194.55535105 -881.60667419 193.72724915 C-879.33340944 192.96677607 -877.06056588 192.20504231 -874.78822327 191.44181824 C-855.12320339 184.86589231 -835.86154835 183.10151937 -816.25 191.625 C-797.88703259 201.42570005 -787.79826833 215.2108344 -777.9375 232.9375 C-777.24231697 234.17296555 -776.54635527 235.40799329 -775.84960938 236.64257812 C-774.54050313 238.96464288 -773.2363623 241.28925129 -771.93505859 243.61572266 C-770.06016912 246.96401121 -768.16183816 250.29771353 -766.25 253.625 C-763.45724123 252.30126016 -760.98506127 250.82109726 -758.484375 249.0078125 C-757.76773682 248.48968994 -757.05109863 247.97156738 -756.31274414 247.43774414 C-755.54953857 246.88078857 -754.78633301 246.32383301 -754 245.75 C-753.20005615 245.16919678 -752.4001123 244.58839355 -751.57592773 243.98999023 C-745.79676167 239.78254717 -740.0645923 235.51502807 -734.35571289 231.21289062 C-729.24020764 227.3591472 -724.09583463 223.54620204 -718.9375 219.75 C-717.74785645 218.87444458 -717.74785645 218.87444458 -716.53417969 217.98120117 C-713.2945626 215.59795559 -710.05400045 213.21599673 -706.81347656 210.83398438 C-704.39603641 209.05659768 -701.97920298 207.27838885 -699.5625 205.5 C-698.38107422 204.63169556 -698.38107422 204.63169556 -697.17578125 203.74584961 C-692.73702992 200.47797536 -688.32903546 197.17404515 -683.94384766 193.8347168 C-664.82787511 179.33142052 -648.08973893 169.86031916 -623.25 172.625 C-606.99357397 175.50806906 -594.89830914 185.41597374 -583.00146484 196.07519531 C-578.86909565 199.73177179 -574.54142308 203.15835493 -570.25 206.625 C-564.3683291 211.40277959 -558.52639098 216.22072579 -552.75 221.125 C-551.11783173 222.5067554 -549.48513773 223.88788521 -547.85205078 225.26855469 C-546.78909182 226.16855469 -545.72755188 227.07023348 -544.66748047 227.97363281 C-543.1798169 229.23910981 -541.68381727 230.49476714 -540.1875 231.75 C-539.33027344 232.47445313 -538.47304687 233.19890625 -537.58984375 233.9453125 C-534.68349422 236.08674942 -534.68349422 236.08674942 -531.25 236.625 C-528.99353261 235.1704328 -528.99353261 235.1704328 -526.8125 232.9375 C-525.49958984 231.69419922 -525.49958984 231.69419922 -524.16015625 230.42578125 C-523.69109863 229.97283691 -523.22204102 229.51989258 -522.73876953 229.05322266 C-520.11443905 226.53562126 -517.42679698 224.08652185 -514.75 221.625 C-513.63662551 220.59515288 -512.52334322 219.56520606 -511.41015625 218.53515625 C-507.89554954 215.29098516 -504.33908049 212.09462967 -500.77734375 208.90234375 C-497.91917797 206.32690225 -495.08289739 203.72814236 -492.25 201.125 C-488.60072829 197.77206883 -484.93830402 194.43501643 -481.25 191.125 C-475.54338306 186.00180716 -469.89684646 180.81380061 -464.25 175.625 C-457.79903192 169.69730436 -451.33281284 163.7890628 -444.8125 157.9375 C-441.94399591 155.34884997 -439.0952335 152.73914854 -436.25 150.125 C-432.60070475 146.77209421 -428.93830432 143.43501669 -425.25 140.125 C-421.6061615 136.85369451 -417.98325206 133.56047239 -414.375 130.25 C-413.87516602 129.79141602 -413.37533203 129.33283203 -412.86035156 128.86035156 C-410.27222228 126.48444556 -407.68628504 124.10617376 -405.1015625 121.7265625 C-394.56521751 112.03319109 -394.56521751 112.03319109 -390.2734375 108.36328125 C-388.79737341 107.09523391 -387.34752986 105.79647809 -385.9140625 104.48046875 C-371.38133649 91.67159463 -352.11114281 84.72799731 -332.76171875 85.375 C-308.97630186 87.06828886 -292.60543181 98.55394126 -274.38037109 112.94726562 C-271.49935598 115.21615582 -268.59609394 117.4540502 -265.6875 119.6875 C-264.66527344 120.47253906 -263.64304687 121.25757813 -262.58984375 122.06640625 C-257.91806069 125.64730168 -253.24088574 129.22115424 -248.56420898 132.7956543 C-239.09621385 140.03349151 -229.64547766 147.29312854 -220.25 154.625 C-216.65278644 153.1295292 -214.61902779 151.09793692 -212.0625 148.1875 C-210.87333984 146.83591797 -210.87333984 146.83591797 -209.66015625 145.45703125 C-207.39541672 142.79587053 -205.1901984 140.09762233 -203 137.375 C-198.9004808 132.30076994 -194.51629138 127.5626967 -190.04785156 122.81738281 C-186.80481169 119.35473253 -183.71585125 115.83231407 -180.75 112.125 C-176.74652544 107.1206568 -172.43663292 102.47800698 -168.046875 97.81640625 C-164.80421929 94.35403789 -161.71555917 90.83194897 -158.75 87.125 C-155.26437264 82.7679658 -151.57206333 78.68378467 -147.75 74.625 C-143.12379473 69.71193945 -138.77729122 64.67378041 -134.55859375 59.40234375 C-131.41198293 55.61682718 -128.05312334 52.04994838 -124.68896484 48.45849609 C-121.59205297 45.13327677 -118.65371008 41.73770929 -115.8125 38.1875 C-111.78829792 33.17002844 -107.46672663 28.50381408 -103.0559082 23.82983398 C-99.70158553 20.25421748 -96.54707126 16.59612841 -93.5 12.75 C-70.35272227 -15.95262438 -29.90588352 -22.29276696 0 0 Z " fill="#006B6E" transform="translate(1674.25,1168.375)"/>
<path d="M0 0 C1.67008359 0.54577047 3.34065471 1.09005142 5.01171875 1.6328125 C8.25308745 2.68704756 11.49206119 3.74819185 14.72949219 4.81445312 C19.37042103 6.33746392 24.03244049 7.78478791 28.70581055 9.20503235 C39.64296289 12.54762876 50.5441729 16.00667292 61.43797684 19.4875164 C63.52868733 20.15554642 65.61959269 20.82296365 67.71054077 21.49024963 C70.69259135 22.44196221 73.67457184 23.39389388 76.65649414 24.3460083 C84.38764605 26.81438844 92.11950415 29.28055465 99.8515625 31.74609375 C100.60933739 31.98772751 101.36711227 32.22936127 102.14785004 32.47831726 C114.63521131 36.45977778 127.12620612 40.42955258 139.625 44.375 C140.35752991 44.60639679 141.09005981 44.83779358 141.8447876 45.07620239 C148.28328099 47.10933795 154.72527426 49.12826678 161.18066406 51.10717773 C168.26526852 53.28515 175.32916055 55.52564572 182.390625 57.77734375 C183.74122915 58.20756396 185.09185116 58.63772811 186.44248962 59.06784058 C188.56444368 59.74362637 190.68637053 60.41949695 192.80821133 61.09563828 C197.96686902 62.73948329 203.12643649 64.38045013 208.28637695 66.02026367 C232.96832401 73.86603086 232.96832401 73.86603086 244.30117798 77.53874207 C248.11034131 78.77312124 251.92158569 80.00099394 255.73303223 81.228302 C257.43744174 81.7795068 259.1406781 82.33435395 260.84265137 82.89303589 C263.15662302 83.65253054 265.47419993 84.3998368 267.79296875 85.14453125 C268.44410141 85.36221161 269.09523407 85.57989197 269.76609802 85.8041687 C276.35991492 87.89417535 281.34780398 88.03429529 287.61456299 84.9145813 C288.26253845 84.5740976 288.91051392 84.23361389 289.578125 83.8828125 C290.62767365 83.35238846 290.62767365 83.35238846 291.69842529 82.81124878 C293.93087488 81.67885893 296.1527745 80.52730097 298.375 79.375 C299.81967188 78.63936556 301.26498086 77.9049809 302.7109375 77.171875 C311.05015509 72.92955374 319.32755009 68.57044414 327.60214233 64.20384216 C337.01066548 59.24521926 346.46095827 54.36843007 355.92480469 49.51635742 C357.98707522 48.45755276 360.04793477 47.39599568 362.10742188 46.33178711 C384.14310105 34.94726548 384.14310105 34.94726548 395.125 31.25 C396.341875 30.8375 397.55875 30.425 398.8125 30 C403.26138739 28.99270474 407.5739201 28.51735316 412.125 28.25 C413.16269531 28.17265625 414.20039062 28.0953125 415.26953125 28.015625 C424.85934312 27.64159117 434.11618406 28.96583868 443.5625 30.5 C444.85446289 30.70447754 446.14642578 30.90895508 447.47753906 31.11962891 C460.5858553 33.36662325 468.29471964 36.67093697 476.109375 47.6015625 C479.61896047 53.29788968 479.16773527 60.86230875 478.125 67.25 C473.32759003 85.02264426 465.2388417 102.34688827 453.125 116.25 C452.361875 117.219375 451.59875 118.18875 450.8125 119.1875 C448.01079835 122.54308181 444.81906743 125.0992444 441.3125 127.6875 C440.28902466 128.44848999 440.28902466 128.44848999 439.24487305 129.22485352 C430.20845167 135.81024863 420.64304996 141.58897546 411.11181641 147.42138672 C407.46039021 149.65689287 403.82028799 151.91033368 400.18115234 154.16577148 C398.47241304 155.22479816 396.76309957 156.28289895 395.05322266 157.34008789 C390.47109187 160.17321841 385.8942675 163.01460356 381.32421875 165.8671875 C380.33671631 166.48231201 379.34921387 167.09743652 378.33178711 167.73120117 C376.31905553 168.99365438 374.3132965 170.26729279 372.31469727 171.55200195 C367.1569683 174.8479247 362.01546877 177.85825044 356.515625 180.55078125 C343.8309688 186.94060093 343.8309688 186.94060093 336.27734375 198.47265625 C334.5706803 204.43097793 333.55369702 210.4581716 332.67871094 216.58789062 C331.80306574 222.37919482 330.44416895 228.04670648 329.125 233.75 C328.63415285 235.98930668 328.14457418 238.22889178 327.65625 240.46875 C325.84748477 248.60819355 323.78646367 256.68041108 321.73266602 264.76074219 C319.41589444 273.93579672 317.33815628 283.15040307 315.32202148 292.39550781 C313.73421258 299.63149265 312.01825388 306.82185127 310.1875 314 C307.8373646 323.2150656 305.69274486 332.4681859 303.625 341.75 C301.3397464 352.00818008 298.91938693 362.21938696 296.32202148 372.40332031 C294.4658674 379.73928453 292.79975254 387.1069211 291.1875 394.5 C289.15997561 403.79420915 286.96835702 413.0304028 284.625 422.25 C282.32397041 431.30372428 280.17194088 440.37170684 278.1875 449.5 C276.08019145 459.13044303 273.87070241 468.73166337 271.52145386 478.30578613 C271.17835736 479.70837151 270.83852338 481.11175967 270.50222778 482.51599121 C267.86196623 493.51440271 265.65984108 502.47857525 256.125 509.25 C254.825625 510.178125 254.825625 510.178125 253.5 511.125 C246.88745398 513.32918201 239.24200617 513.28953445 232.625 511 C226.04403323 507.70951662 221.77209545 503.75061606 219.234375 496.81640625 C218.36681533 494.04830274 217.55229443 491.26928097 216.76269531 488.47802734 C216.02553124 485.90246866 215.2596112 483.33623463 214.4921875 480.76953125 C211.4107059 470.41392651 208.51135875 460.04956427 205.96899414 449.54858398 C204.33229183 442.87145342 202.37713721 436.31815526 200.35522461 429.74902344 C198.33953725 423.13389814 196.64692818 416.46957443 195.01953125 409.75 C193.57312166 403.85380803 191.91085336 398.05175711 190.125 392.25 C187.83234414 384.80177792 185.85361975 377.32301056 184.01953125 369.75 C182.57312166 363.85380803 180.91085336 358.05175711 179.125 352.25 C177.08561471 345.62458586 175.25683042 338.98739185 173.625 332.25 C171.34844886 322.85622134 168.59914658 313.63982063 165.77539062 304.3984375 C162.125 292.34009009 162.125 292.34009009 162.125 288.25 C161.0097998 288.73243164 159.89459961 289.21486328 158.74560547 289.71191406 C119.42071345 306.70907861 79.8199018 322.56312325 39.42849731 336.84863281 C37.27167178 337.61727667 35.12075594 338.40080072 32.97045898 339.1875 C26.89247561 341.38947289 20.95796232 343.40710981 14.57421875 344.5703125 C6.72892357 346.03386151 6.72892357 346.03386151 0.125 350.25 C-3.98863783 357.57445456 -4.98023837 366.11421817 -6.234375 374.30908203 C-7.26862984 380.67148359 -8.78309889 386.91355176 -10.25 393.1875 C-10.67982573 395.102424 -11.10961589 397.01735733 -11.53671265 398.93289185 C-13.61376157 408.23299259 -15.79817163 417.50721751 -18.02911377 426.77151489 C-18.42254668 428.40793065 -18.8138259 430.0448659 -19.20281982 431.68234253 C-19.74873672 433.97728977 -20.30291633 436.27008908 -20.859375 438.5625 C-21.01852386 439.23724869 -21.17767273 439.91199738 -21.34164429 440.60719299 C-22.60724099 445.75653752 -23.99791532 451.24346121 -27.6875 455.1875 C-30.6853891 456.64361756 -32.57659091 456.7212013 -35.875 456.25 C-38.7952344 454.75592658 -40.38250493 453.41517127 -41.67578125 450.35546875 C-42.4938627 447.67271003 -43.17869533 444.96695352 -43.875 442.25 C-44.41649607 440.44770712 -44.95853143 438.64556414 -45.50805664 436.84570312 C-48.40338451 427.30383904 -50.87386418 417.65629566 -53.35180664 407.99926758 C-55.12399778 401.10438959 -56.96685743 394.24700274 -58.96484375 387.4140625 C-60.6988349 381.38602458 -62.27791826 375.31551257 -63.875 369.25 C-64.55304688 369.394375 -65.23109375 369.53875 -65.9296875 369.6875 C-79.49696274 372.39343855 -79.49696274 372.39343855 -84.875 371.25 C-88.41743472 368.59520984 -90.55277337 364.94168983 -91.375 360.625 C-90.72973506 356.26946167 -88.87549147 354.49234402 -85.89453125 351.375 C-83.41708067 348.76816612 -81.15931805 346.02747825 -78.875 343.25 C-87.13815031 334.37836076 -95.42132782 325.54633105 -104.09228516 317.06982422 C-106.93834485 314.26895387 -109.63820522 311.40741453 -112.2421875 308.37890625 C-116.75118165 303.16009949 -121.70123136 298.40643056 -126.64648438 293.60546875 C-138.31269172 282.11777223 -138.31269172 282.11777223 -139.5 276.0625 C-138.72342197 272.56789886 -137.35220585 270.80006484 -134.875 268.25 C-128.82501607 265.22500804 -119.70324889 269.39839695 -113.765625 271.34179688 C-112.56421875 271.74462891 -111.3628125 272.14746094 -110.125 272.5625 C-107.73463846 273.35105949 -105.3440144 274.13882366 -102.953125 274.92578125 C-101.7779834 275.31443359 -100.6028418 275.70308594 -99.39208984 276.10351562 C-94.88937795 277.57128843 -90.3655321 278.96328672 -85.8359375 280.34545898 C-81.79879934 281.57877007 -77.77398099 282.84955174 -73.75 284.125 C-72.95505127 284.37620605 -72.16010254 284.62741211 -71.34106445 284.88623047 C-67.20091788 286.19484374 -63.06241878 287.50846149 -58.92578125 288.828125 C-54.97974272 290.08597401 -51.02897301 291.32784407 -47.07470703 292.55957031 C-44.96110305 293.22297454 -42.85375548 293.903942 -40.74609375 294.5859375 C-39.50988281 294.97007812 -38.27367187 295.35421875 -37 295.75 C-35.93007813 296.0903125 -34.86015625 296.430625 -33.7578125 296.78125 C-30.35051761 297.33528169 -28.86796589 296.91332057 -25.875 295.25 C-24.20235199 293.86416962 -24.20235199 293.86416962 -22.75 292.1875 C-19.10053176 288.37357075 -15.12891415 285.13362041 -11.01953125 281.828125 C-7.45361016 278.93529856 -4.01455377 275.90186502 -0.5625 272.875 C4.74192367 268.2401643 10.14821062 263.793136 15.71850586 259.48266602 C20.39468326 255.85535084 24.9516452 252.09833346 29.5 248.3125 C36.13357157 242.81081785 42.91209864 237.56546313 49.83984375 232.44140625 C52.96290458 230.1286531 56.05222839 227.77645008 59.12890625 225.40234375 C69.18656025 217.64688694 79.36927877 210.20973929 89.90234375 203.11328125 C95.07590798 199.62591573 100.11876692 195.97373741 105.125 192.25 C101.41165785 184.11301538 93.91254309 177.92506468 87.625 171.75 C82.85642226 167.06672776 78.27524034 162.33033648 73.91601562 157.26367188 C70.65309 153.59510446 67.12651288 150.18887401 63.625 146.75 C58.85642226 142.06672776 54.27524034 137.33033648 49.91601562 132.26367188 C46.65309 128.59510446 43.12651288 125.18887401 39.625 121.75 C34.85642226 117.06672776 30.27524034 112.33033648 25.91601562 107.26367188 C22.65309 103.59510446 19.12651288 100.18887401 15.625 96.75 C10.85642226 92.06672776 6.27524034 87.33033648 1.91601562 82.26367188 C-1.34691 78.59510446 -4.87348712 75.18887401 -8.375 71.75 C-12.50924636 67.68971154 -16.59399954 63.64433172 -20.37109375 59.24609375 C-24.81371243 54.0797561 -29.73290337 49.40709535 -34.64648438 44.69335938 C-41.79465237 37.68673926 -48.21668988 30.22808725 -49.1875 19.9375 C-48.39817986 10.62352233 -44.8154886 4.51397888 -37.875 -1.75 C-26.34475393 -10.50357457 -12.14501423 -4.05538684 0 0 Z " fill="#00365E" transform="translate(871.875,474.75)"/>
<path d="M0 0 C0.66 0.33 1.32 0.66 2 1 C-14.95069759 14.4466038 -32.1987441 27.49275822 -49.65283203 40.27783203 C-52.03121911 42.02290613 -54.40499134 43.77407617 -56.77734375 45.52734375 C-66.72423058 52.8777148 -76.71897674 60.15743957 -86.75732422 67.38232422 C-89.0306298 69.02209373 -91.29912929 70.66831309 -93.56640625 72.31640625 C-101.32115521 77.9483839 -109.11588757 83.50323295 -117.03173828 88.90673828 C-122.51793595 92.65430436 -127.95070655 96.47369169 -133.36352539 100.32641602 C-146.95394864 109.97206969 -160.78380067 119.28305113 -174.58984375 128.61572266 C-176.44415892 129.87024619 -178.2973535 131.1264277 -180.14941406 132.38427734 C-190.96310723 139.72773376 -201.85200793 146.8516987 -213.046875 153.60058594 C-218.22369554 156.72523074 -223.27181407 160.03644309 -228.3125 163.375 C-239.08929796 170.45039377 -249.9964654 177.28379577 -261 184 C-262.08474609 184.66290039 -263.16949219 185.32580078 -264.28710938 186.00878906 C-276.50395651 193.47098365 -288.74651263 200.88977159 -301.0625 208.1875 C-302.33565063 208.94353516 -302.33565063 208.94353516 -303.63452148 209.71484375 C-308.85307231 212.79352494 -314.13498575 215.7329625 -319.46264648 218.6184082 C-322.67064206 220.36516535 -325.8360617 222.17465098 -329 224 C-339.18171279 229.87406507 -349.5540196 235.36223131 -360 240.75 C-368.1216082 244.94644114 -376.23176191 249.16276691 -384.3125 253.4375 C-390.70269775 256.81312247 -397.12242876 260.10999911 -403.6015625 263.3125 C-405.87554759 264.44165122 -408.14123193 265.58766886 -410.3984375 266.75 C-488.12814192 306.70769408 -591.07097911 350.09831363 -700.3828125 327.65625 C-730.82037281 317.29335992 -755.19203683 294.0504336 -769.48999023 265.59204102 C-773.06268687 258.1810516 -774.32123256 251.39392443 -774.37109375 243.21875 C-774.38012222 242.28760376 -774.3891507 241.35645752 -774.39845276 240.39709473 C-774.41290974 238.43045234 -774.42183063 236.46376235 -774.42553711 234.49707031 C-774.43735532 231.53624798 -774.48651938 228.57756612 -774.53710938 225.6171875 C-774.63745873 214.0697266 -773.69135607 204.63330047 -769 194 C-768.60820557 193.10716309 -768.21641113 192.21432617 -767.81274414 191.29443359 C-766.71794799 188.96096857 -765.54783355 186.69930762 -764.3125 184.4375 C-763.66849243 183.24036377 -763.66849243 183.24036377 -763.01147461 182.01904297 C-756.15193157 169.54010027 -747.41195479 158.63184276 -738 148 C-737.53899902 147.47583496 -737.07799805 146.95166992 -736.60302734 146.41162109 C-725.17037446 133.48377604 -712.57592318 121.65306153 -699 111 C-697.91358304 110.13341325 -696.8276719 109.26619209 -695.7421875 108.3984375 C-640.93688436 64.74826476 -577.99950945 31.02620526 -514 3 C-513.67 3.66 -513.34 4.32 -513 5 C-513.8765625 5.47566406 -514.753125 5.95132813 -515.65625 6.44140625 C-533.81449883 16.41462199 -551.35138166 27.45952906 -568.11230469 39.63427734 C-569.96414408 40.97405871 -571.82704648 42.29652736 -573.6953125 43.61328125 C-586.2949747 52.50211926 -598.32486441 61.9282497 -610 72 C-611.10988281 72.95712891 -611.10988281 72.95712891 -612.2421875 73.93359375 C-614.17165936 75.61122691 -616.08795924 77.30253696 -618 79 C-618.77730469 79.68449219 -619.55460938 80.36898437 -620.35546875 81.07421875 C-641.97588615 100.28119421 -664.26082461 124.66533856 -668.33984375 154.484375 C-668.83074097 165.2448421 -665.18938095 175.36865485 -659 184 C-658.59394531 184.60070313 -658.18789063 185.20140625 -657.76953125 185.8203125 C-645.20204088 202.44806899 -621.11456956 210.98613718 -601.46801758 214.12451172 C-578.62820377 217.14700893 -554.66215512 215.40461099 -532 212 C-530.94377441 211.8443457 -529.88754883 211.68869141 -528.79931641 211.52832031 C-508.59768444 208.45622512 -488.79918681 203.54650175 -468.96846008 198.69161987 C-463.16459125 197.27269589 -457.34969086 195.92063322 -451.5168457 194.62524414 C-448.6504031 193.91315184 -446.00752021 192.9207323 -443.27734375 191.8125 C-440.13447099 190.69120063 -436.9167642 189.89059844 -433.6875 189.0625 C-428.32324261 187.67936304 -423.16447196 186.02938044 -417.98828125 184.05859375 C-414.30388604 182.75340277 -410.57131397 181.69250485 -406.8125 180.625 C-400.25668237 178.75389545 -393.9049123 176.55065904 -387.54614258 174.09692383 C-383.12376839 172.39635167 -378.69287421 170.94059145 -374.140625 169.63671875 C-371.48123523 168.84569588 -368.89915496 167.87628579 -366.3125 166.875 C-363.30978442 165.73883735 -360.27938433 164.68794187 -357.25 163.625 C-352.72916274 162.02005458 -348.28743622 160.31944458 -343.875 158.4375 C-339.93998634 156.76002406 -336.01095494 155.30539289 -331.9375 154 C-327.0510003 152.41982023 -322.48767771 150.46700159 -317.84375 148.28515625 C-313.83946961 146.47552954 -309.7450354 144.94089203 -305.62890625 143.40625 C-291.40544305 137.89446663 -277.43237469 131.68776698 -263.39527893 125.7180481 C-258.94137919 123.82401676 -254.48504297 121.93585859 -250.02734375 120.05078125 C-220.55812776 107.5505374 -191.43966893 94.25536348 -162.49729919 80.58453369 C-158.46833077 78.68413821 -154.42818992 76.80998219 -150.37890625 74.953125 C-119.7247967 60.89091314 -89.54693837 45.81205721 -59.375 30.75 C-58.43311829 30.28039856 -57.49123657 29.81079712 -56.52081299 29.32696533 C-41.91451316 22.03968869 -27.42164267 14.55724203 -13.05859375 6.80078125 C-12.27162109 6.37732422 -11.48464844 5.95386719 -10.67382812 5.51757812 C-9.11352614 4.67678658 -7.55647358 3.82994904 -6.00195312 2.97851562 C-5.23689453 2.56923828 -4.47183594 2.15996094 -3.68359375 1.73828125 C-3.01900146 1.37774658 -2.35440918 1.01721191 -1.66967773 0.64575195 C-1.11868408 0.43265381 -0.56769043 0.21955566 0 0 Z " fill="#00365F" transform="translate(774,844)"/>
<path d="M0 0 C3.76511594 2.89012421 7.38462397 5.92610994 11 9 C11.67675781 9.51820313 12.35351562 10.03640625 13.05078125 10.5703125 C27.81007638 22.2432954 38.45285103 41.96098137 43 60 C43 60.99 43 61.98 43 63 C43.79921875 62.66226563 44.5984375 62.32453125 45.421875 61.9765625 C63.37465649 54.68587894 81.75158374 53.92981976 100 61 C117.32754812 68.53460919 129.58077635 80.61708321 137.875 97.5 C140 103 140 103 143 116 C0.44 116 -142.12 116 -289 116 C-289 92.78556485 -289 92.78556485 -286.9375 86.125 C-286.71344482 85.34946777 -286.48938965 84.57393555 -286.25854492 83.77490234 C-279.56314277 61.73255701 -264.95361991 44.36208932 -245 33 C-244.11183594 32.47664062 -243.22367188 31.95328125 -242.30859375 31.4140625 C-223.18741526 20.93597582 -201.10016779 19.21019924 -180.09375 24.38720703 C-172.63547494 26.57007438 -165.53394005 30.07469933 -158.73046875 33.78125 C-155.99149966 35.37241321 -155.99149966 35.37241321 -153 34 C-151.57919556 31.9508379 -151.57919556 31.9508379 -150.1875 29.375 C-134.55250785 4.13612378 -109.10979915 -9.97334833 -81 -17 C-54.08594301 -23.12994904 -22.3822481 -15.49259844 0 0 Z " fill="#FEFEFE" transform="translate(1508,939)"/>
<path d="M0 0 C1.14855469 0.39703125 2.29710937 0.7940625 3.48046875 1.203125 C6.70293128 2.37492956 9.8507448 3.64494199 13 5 C14.25490234 5.53367187 14.25490234 5.53367187 15.53515625 6.078125 C35.11334618 15.11911027 50.35002349 31.20980057 62 49 C63.03898437 48.45730469 64.07796875 47.91460938 65.1484375 47.35546875 C87.67701193 35.73532477 112.14686143 31.72180716 136.81323242 39.37744141 C148.24833523 43.23216878 157.99786131 48.92518146 167 57 C167.90621094 57.81210937 168.81242187 58.62421875 169.74609375 59.4609375 C184.32037374 73.24687225 193.50627415 91.05019319 196 111 C196 116.94 196 122.88 196 129 C53.77 129 -88.46 129 -235 129 C-231.3064017 110.53200849 -222.93669824 93.87814512 -207.24951172 82.75927734 C-188.85546605 70.86731293 -170.09775211 67.53855375 -148.703125 72.06640625 C-144.10526029 73.22557256 -140.20281969 74.82353981 -136 77 C-135.86464844 76.3915625 -135.72929687 75.783125 -135.58984375 75.15625 C-130.93840095 56.21624339 -121.4445814 41.05019318 -108 27 C-107.37738281 26.31421875 -106.75476563 25.6284375 -106.11328125 24.921875 C-80.94361102 -1.88355996 -34.47314494 -12.71584268 0 0 Z " fill="#FEFEFE" transform="translate(585,541)"/>
<path d="M0 0 C5.2056632 3.87012789 9.72487505 9.06900025 11.0859375 15.55078125 C12.02971305 24.7473497 11.96179865 33.04273645 6.0859375 40.55078125 C-0.18786311 46.73232008 -6.32092304 49.81704328 -15.2265625 49.92578125 C-23.259641 49.79754511 -30.22171885 47.40124555 -35.9140625 41.55078125 C-41.56322079 32.72397142 -43.38895431 24.69651397 -41.48828125 14.19921875 C-39.25133799 7.30998246 -34.28651669 1.46545482 -27.9140625 -1.94921875 C-18.89422016 -5.38755181 -8.31586843 -4.9038759 0 0 Z " fill="#FCFEFE" transform="translate(1706.9140625,719.44921875)"/>
<path d="M0 0 C7.73104462 4.79324766 13.34294351 10.05778545 16.125 18.9375 C17.54753869 26.96235567 15.88428313 33.23190351 11.97265625 40.296875 C8.21881104 45.66177851 3.32427174 48.93602084 -2.875 50.9375 C-11.61037712 51.91331012 -19.41043189 52.07045771 -26.8203125 46.78125 C-32.48893588 41.69457655 -36.34338738 36.17886814 -37.125 28.47265625 C-37.49187722 20.29817312 -35.41919699 14.02638802 -31.125 7.125 C-22.96294347 -0.81033273 -11.02252271 -4.17830512 0 0 Z " fill="#FCFDFD" transform="translate(1360.875,1408.0625)"/>
<path d="M0 0 C6.51667341 4.6359423 11.37185588 9.96480727 13 18 C13.92702378 26.66235332 11.8166365 33.47326278 7.25 40.8125 C0.5792978 47.29790491 -5.87535334 49.34732719 -15.09155273 49.3828125 C-22.30195723 49.21659835 -27.75286157 47.30240887 -32.8359375 42.1328125 C-38.07345696 35.56675151 -40.62065048 29.20345831 -40.34375 20.76953125 C-39.35496801 12.80309456 -34.95940484 6.23812767 -29 1 C-20.64854589 -4.70147348 -8.75771 -5.16339985 0 0 Z " fill="#FDFEFE" transform="translate(720,203)"/>
<path d="M0 0 C4.80373898 2.65718633 8.05016447 6.08799341 9.8125 11.375 C10.50698865 18.52481754 10.27444101 23.62144448 5.8125 29.375 C-0.34332128 34.14890221 -5.56590622 35.18704196 -13.1875 34.375 C-17.9000327 32.87350206 -21.61448584 29.75328826 -24.3046875 25.62890625 C-26.44968495 20.15251897 -26.36064356 13.4614249 -24.27734375 7.98046875 C-23.1875 6.0625 -23.1875 6.0625 -21.1875 3.375 C-20.5275 3.375 -19.8675 3.375 -19.1875 3.375 C-19.1875 2.715 -19.1875 2.055 -19.1875 1.375 C-12.58455647 -1.92647177 -6.91075688 -3.10464454 0 0 Z " fill="#FAFDFE" transform="translate(1557.1875,400.625)"/>
<path d="M0 0 C4.0964474 2.42271236 7.08477633 5.03140585 9.71875 9.05078125 C10.66052316 14.90916429 10.87384666 21.7233506 8.21875 27.17578125 C4.46543855 31.49208942 0.90119717 33.56768677 -4.77734375 34.4296875 C-10.80611652 34.71415014 -14.44019535 33.63316169 -19.28125 30.05078125 C-24.21305005 24.72962856 -24.75125275 20.19860603 -24.69140625 13.13671875 C-24.04087339 8.24223345 -21.85777592 5.33887766 -18.28125 2.05078125 C-12.95849845 -1.82031079 -6.10725834 -2.5412051 0 0 Z " fill="#FBFDFD" transform="translate(1034.28125,1702.94921875)"/>
<path d="M0 0 C4.50665768 2.13473258 7.1741532 4.91822129 10 9 C11.85804418 14.57413253 11.80631384 19.94275568 9.3125 25.3125 C6.81553013 29.75746055 3.87177531 32.3760749 -1 34 C-7.03801292 34.70667114 -12.42248613 35.02977735 -17.5625 31.4375 C-22.0007751 27.50671997 -23.73334 23.44438331 -24.375 17.5625 C-23.72162009 11.35539089 -22.3864648 6.76924586 -17.625 2.5 C-12.19452551 -1.18065493 -6.302917 -0.96146192 0 0 Z " fill="#FCFEFE" transform="translate(787,1270)"/>
<path d="M0 0 C4.3836804 2.82503848 7.85568313 5.92045782 9.8125 10.8125 C10.47610439 16.35282503 10.56823895 21.24504144 8.125 26.3125 C4.39516547 30.34475354 1.21397489 33.50806507 -4.45703125 34.015625 C-9.80442994 34.11419456 -13.65611245 33.97393318 -18.1875 30.8125 C-22.50097945 26.41697067 -24.35324543 23.280968 -24.5 17.125 C-24.43778977 11.35327321 -23.77088501 8.33888107 -20.1875 3.8125 C-13.86942323 -1.087233 -7.60577193 -2.83352288 0 0 Z " fill="#FDFEFE" transform="translate(425.1875,793.1875)"/>
</svg>
